<?xml version="1.0" encoding="UTF-8"?>
<svg version="1.1" xmlns="http://www.w3.org/2000/svg" width="980" height="284">
<path d="M0 0 C7.43390587 4.6723669 12.12616803 11.66351789 15.6875 19.5 C15.99494141 20.15097656 16.30238281 20.80195312 16.61914062 21.47265625 C18.22598879 24.9535746 19.4517268 28.19863915 20 32 C16.60711611 29.73807741 16.03293566 28.35847824 14.3125 24.75 C11.46224977 19.39434462 8.5868932 15.5939147 3 13 C-1.29581386 11.97449556 -4.33590112 12.64240829 -8.25 14.75 C-9.1575 15.4925 -10.065 16.235 -11 17 C-11.680625 17.556875 -12.36125 18.11375 -13.0625 18.6875 C-18.52398469 25.20604625 -21.33190046 33.02551256 -24 41 C-23.21496094 40.79503906 -22.42992187 40.59007812 -21.62109375 40.37890625 C-20.57050781 40.10949219 -19.51992187 39.84007812 -18.4375 39.5625 C-17.40496094 39.29566406 -16.37242187 39.02882812 -15.30859375 38.75390625 C11.13040398 32.72943569 36.00411258 39.3223414 58.6484375 53.265625 C59.42445313 53.83796875 60.20046875 54.4103125 61 55 C61 55.66 61 56.32 61 57 C61.56074219 57.2371875 62.12148437 57.474375 62.69921875 57.71875 C74.28270201 64.16931453 82.48511413 78.36419684 88 90 C88 90.66 88 91.32 88 92 C93.76259012 87.1017984 96.55960138 79.63085817 97.2578125 72.2890625 C97.43507877 67.88104115 97.46763627 64.8813145 95.375 60.9375 C90.7049587 57.12772946 85.87376018 56.74165421 80 56.8125 C78.824375 56.81894531 77.64875 56.82539062 76.4375 56.83203125 C73.21294531 56.98959472 70.16820926 57.39630159 67 58 C67.33 57.01 67.66 56.02 68 55 C79.23192409 52.25332861 93.91650382 48.69871008 104.9375 53.75 C108.34004295 56.24982747 109.65380953 57.89467886 110.3359375 62.04296875 C110.56771172 74.76737316 101.42488957 87.18214903 94 97 C93.01 97.495 93.01 97.495 92 98 C92.56739868 102.12973628 92.56739868 102.12973628 94 106 C94.72500685 111.01420824 95.04903364 115.85272026 95.03515625 120.91796875 C95.04095703 121.94470703 95.04675781 122.97144531 95.05273438 124.02929688 C95.05928131 126.14657675 95.03813632 128.26411132 94.99023438 130.38085938 C94.97976814 136.14679937 94.97976814 136.14679937 97.72021484 140.99365234 C99.75082475 142.53029218 101.76395412 143.78691926 104 145 C106.04339359 146.28502626 108.02134809 147.61494366 110 149 C110 149.66 110 150.32 110 151 C110.57234375 151.2475 111.1446875 151.495 111.734375 151.75 C114.35010611 153.19316199 116.14773456 154.88216222 118.25 157 C119.30960937 158.051875 119.30960937 158.051875 120.390625 159.125 C122 161 122 161 122 163 C122.66 163 123.32 163 124 163 C127.97087335 168.74358467 129.83874114 173.49892629 129.484375 180.546875 C128.73641771 184.33491676 127.1191605 185.83014922 124 188 C119.5065173 190.58163912 115.41441921 191.65372107 110.3125 192.1875 C109.26618408 192.30702026 109.26618408 192.30702026 108.19873047 192.42895508 C93.09064467 194.04532234 93.09064467 194.04532234 89 192 C89 191.34 89 190.68 89 190 C90.35931641 189.96132813 90.35931641 189.96132813 91.74609375 189.921875 C100.74238139 189.50300023 106.94253041 188.08382292 114.5625 183.4375 C117.10182414 179.13168949 116.81955909 174.83346265 116 170 C112.57901041 161.06664662 103.94159124 151.29439416 96 146 C96 145.34 96 144.68 96 144 C95.34 144 94.68 144 94 144 C93.88914062 144.65871094 93.77828125 145.31742188 93.6640625 145.99609375 C91.12486909 157.48220984 86.45324898 168.19950506 80 178 C79.51015625 178.75539062 79.0203125 179.51078125 78.515625 180.2890625 C77.41685294 181.91136713 76.2197606 183.46658667 75 185 C74.34 185 73.68 185 73 185 C72.77699219 185.55300781 72.55398437 186.10601562 72.32421875 186.67578125 C65.23198169 199.12380795 48.25088143 207.98265406 35.171875 212.44140625 C33 213 33 213 30 213 C29.90203125 213.63164062 29.8040625 214.26328125 29.703125 214.9140625 C27.74186934 226.64778171 24.75306071 237.5505632 19 248 C18.32785206 249.33057858 17.65939736 250.66305672 17 252 C16.34 252 15.68 252 15 252 C14.7525 252.598125 14.505 253.19625 14.25 253.8125 C12.78114526 256.38299579 11.50493256 257.4355158 9 259 C4.31511951 259.85812167 0.17560511 259.50712377 -4.1875 257.625 C-10.59978326 251.64020229 -14.45917475 244.48495146 -18 236.5625 C-18.31509521 235.86415039 -18.63019043 235.16580078 -18.95483398 234.44628906 C-21.12468189 229.37404568 -21.12468189 229.37404568 -20 226 C-17.78918128 228.21081872 -17.02435864 230.32946334 -15.86328125 233.1875 C-14.63224279 235.77212374 -12.81811925 237.80571815 -11 240 C-11 240.66 -11 241.32 -11 242 C-10.34 242 -9.68 242 -9 242 C-9 242.66 -9 243.32 -9 244 C-4.9793832 245.82755309 -1.43631718 246.92480818 3 247 C6.58197049 245.39098652 10.20312761 243.59374478 12 240 C12.66 240 13.32 240 14 240 C14.2475 239.319375 14.495 238.63875 14.75 237.9375 C16 235 16 235 17.875 231.9375 C20.80186652 226.98603409 22.31232018 221.46700537 24 216 C23.3915625 216.0721875 22.783125 216.144375 22.15625 216.21875 C-1.64155965 218.73851808 -24.8624463 215.86304675 -45 202 C-46.51013672 200.96746094 -46.51013672 200.96746094 -48.05078125 199.9140625 C-53.72916379 195.91682752 -53.72916379 195.91682752 -56 194 C-56 193.34 -56 192.68 -56 192 C-56.66 192 -57.32 192 -58 192 C-64.28987581 185.37705541 -69.30949614 177.80130435 -74 170 C-74.78697266 168.75283203 -74.78697266 168.75283203 -75.58984375 167.48046875 C-76.9606996 165.06912952 -77.85984941 162.8280995 -78.6875 160.1875 C-78.93886719 159.39730469 -79.19023438 158.60710937 -79.44921875 157.79296875 C-79.63097656 157.20128906 -79.81273437 156.60960937 -80 156 C-83.74581464 157.24860488 -84.43074593 158.65364827 -86.625 161.875 C-87.23601562 162.75929687 -87.84703125 163.64359375 -88.4765625 164.5546875 C-90.12684699 166.99180228 -90.12684699 166.99180228 -91 170 C-91.66 170 -92.32 170 -93 170 C-93.103125 170.70125 -93.20625 171.4025 -93.3125 172.125 C-94 175 -94 175 -95.5 177.5625 C-97.9543439 183.1870381 -98.71905026 189.57813671 -97.44921875 195.62109375 C-95.33984474 199.08365109 -92.75995241 200.73402276 -89 202 C-85.33334517 202.44854635 -81.74912804 202.38103531 -78.0625 202.25 C-77.09248047 202.23195312 -76.12246094 202.21390625 -75.12304688 202.1953125 C-72.74765106 202.14850667 -70.37436156 202.08296385 -68 202 C-68 202.66 -68 203.32 -68 204 C-94.15458884 211.01278183 -94.15458884 211.01278183 -105 206 C-108.42887569 203.27089486 -109.64232343 201.82976693 -110.47265625 197.58203125 C-111.2091588 184.49494745 -103.84501958 174.72156911 -96 165 C-95.24460938 164.01773438 -94.48921875 163.03546875 -93.7109375 162.0234375 C-89.68552507 156.826996 -89.68552507 156.826996 -88 155 C-87.34 155 -86.68 155 -86 155 C-85.71125 154.38125 -85.4225 153.7625 -85.125 153.125 C-84 151 -84 151 -82 149 C-82.309375 148.113125 -82.61875 147.22625 -82.9375 146.3125 C-84.57510414 140.69122053 -84.66774411 134.81447802 -85 129 C-86.00933594 128.65195312 -86.00933594 128.65195312 -87.0390625 128.296875 C-97.3112299 123.79771988 -106.36992258 116.01562 -114.5 108.4375 C-115.47912354 107.52629395 -115.47912354 107.52629395 -116.47802734 106.59667969 C-118.0309154 105.11065034 -119.5221432 103.56066774 -121 102 C-121 101.34 -121 100.68 -121 100 C-121.66 100 -122.32 100 -123 100 C-127.41936996 94.29164713 -130.62458175 88.33883559 -130 81 C-129 78.625 -129 78.625 -128 77 C-127.34 77 -126.68 77 -126 77 C-126 76.34 -126 75.68 -126 75 C-118.57663468 69.43247601 -109.36845232 69.62959672 -100.5 69.375 C-99.39140625 69.33632812 -98.2828125 69.29765625 -97.140625 69.2578125 C-94.42724203 69.16424757 -91.71385339 69.07850517 -89 69 C-89 69.66 -89 70.32 -89 71 C-90.15757813 71.18175781 -91.31515625 71.36351563 -92.5078125 71.55078125 C-94.04695908 71.80417733 -95.58601702 72.05811219 -97.125 72.3125 C-98.26582031 72.48942383 -98.26582031 72.48942383 -99.4296875 72.66992188 C-104.1219671 73.45871026 -107.77399838 74.70716933 -112 77 C-112.66 77 -113.32 77 -114 77 C-114 77.66 -114 78.32 -114 79 C-114.66 79 -115.32 79 -116 79 C-117.63746688 86.23214537 -116.17684998 91.35465479 -113 98 C-110.91690066 100.94314815 -110.91690066 100.94314815 -109 103 C-109 103.66 -109 104.32 -109 105 C-108.34 105 -107.68 105 -107 105 C-105.73046875 106.36328125 -105.73046875 106.36328125 -104.1875 108.3125 C-100.83375432 112.27730951 -97.1511446 115.60707779 -93.1875 118.9375 C-92.61217529 119.4219458 -92.03685059 119.9063916 -91.4440918 120.40551758 C-88.3962098 122.95991673 -88.3962098 122.95991673 -85 125 C-84.90203125 123.85144531 -84.8040625 122.70289063 -84.703125 121.51953125 C-83.27187945 106.10406693 -79.21966592 93.63912257 -72 80 C-71.32900787 78.66883818 -70.66012279 77.33658525 -70 76 C-69.34 76 -68.68 76 -68 76 C-67.731875 75.443125 -67.46375 74.88625 -67.1875 74.3125 C-64.68949496 69.44796387 -62.10817256 65.68682153 -58 62 C-57.34 62 -56.68 62 -56 62 C-56 61.34 -56 60.68 -56 60 C-51.52941176 56 -51.52941176 56 -49 56 C-49 55.34 -49 54.68 -49 54 C-48.071875 53.46375 -47.14375 52.9275 -46.1875 52.375 C-45.55714844 52.00117187 -44.92679687 51.62734375 -44.27734375 51.2421875 C-42 50 -42 50 -39.19140625 48.8203125 C-33.34619951 46.26573758 -33.34619951 46.26573758 -29.734375 41.26171875 C-28.99916435 38.18400181 -28.47795915 35.12698696 -28 32 C-25.04776993 21.11587468 -20.25902632 8.58237483 -11.6875 0.9375 C-7.64730179 -0.47187147 -4.20738657 -0.98873584 0 0 Z " fill="#FBFCFB" transform="translate(177,14)"/>
<path d="M0 0 C7.45264168 11.17896252 6.22844701 28.14271903 4.4609375 40.88671875 C3.78020049 43.98743843 2.95247911 46.97277292 2 50 C1.74476563 50.95261719 1.48953125 51.90523437 1.2265625 52.88671875 C-3.48199772 69.06429493 -13.1656449 82.94072377 -26.11328125 93.61328125 C-28.94494815 95.85901578 -28.94494815 95.85901578 -31.01953125 98.1171875 C-37.13724795 103.93324165 -45.84517092 106.64086182 -54 108 C-54.09796875 108.63164062 -54.1959375 109.26328125 -54.296875 109.9140625 C-56.25813066 121.64778171 -59.24693929 132.5505632 -65 143 C-65.67214794 144.33057858 -66.34060264 145.66305672 -67 147 C-67.66 147 -68.32 147 -69 147 C-69.2475 147.598125 -69.495 148.19625 -69.75 148.8125 C-71.21885474 151.38299579 -72.49506744 152.4355158 -75 154 C-79.68488049 154.85812167 -83.82439489 154.50712377 -88.1875 152.625 C-94.59978326 146.64020229 -98.45917475 139.48495146 -102 131.5625 C-102.31509521 130.86415039 -102.63019043 130.16580078 -102.95483398 129.44628906 C-105.12468189 124.37404568 -105.12468189 124.37404568 -104 121 C-101.78918128 123.21081872 -101.02435864 125.32946334 -99.86328125 128.1875 C-98.63224279 130.77212374 -96.81811925 132.80571815 -95 135 C-95 135.66 -95 136.32 -95 137 C-94.34 137 -93.68 137 -93 137 C-93 137.66 -93 138.32 -93 139 C-88.9793832 140.82755309 -85.43631718 141.92480818 -81 142 C-77.41802951 140.39098652 -73.79687239 138.59374478 -72 135 C-71.34 135 -70.68 135 -70 135 C-69.7525 134.319375 -69.505 133.63875 -69.25 132.9375 C-68 130 -68 130 -66.125 126.9375 C-63.19813348 121.98603409 -61.68767982 116.46700537 -60 111 C-60.91265625 111.10828125 -60.91265625 111.10828125 -61.84375 111.21875 C-78.08865576 112.93879885 -93.47386892 112.49386177 -109 107 C-109 106.67 -109 106.34 -109 106 C-108.12770752 106.03927612 -108.12770752 106.03927612 -107.23779297 106.0793457 C-93.70377414 106.60232921 -81.69126819 105.55089916 -68.58984375 102.09375 C-64.97611581 101.15378419 -61.75761437 100.75319446 -58 101 C-61.48720616 96.6409923 -64.72760915 96.05447817 -70 95 C-69.34 93.68 -68.68 92.36 -68 91 C-67.34 91 -66.68 91 -66 91 C-66 90.34 -66 89.68 -66 89 C-64.5 87.375 -64.5 87.375 -63 86 C-70.02551347 86.69265626 -74.00451784 88.09666764 -78.625 93.5390625 C-79.07875 94.02117187 -79.5325 94.50328125 -80 95 C-80.66 95 -81.32 95 -82 95 C-80.68938409 90.76570244 -79.05643741 86.92592596 -77 83 C-83.96412784 85.08923835 -86.45581336 88.80741015 -90 95 C-91.53271273 90.41201223 -90.02911182 88.22055258 -88 84 C-90.97 84.99 -90.97 84.99 -94 86 C-94 81.38 -94 76.76 -94 72 C-92.865625 71.5875 -91.73125 71.175 -90.5625 70.75 C-86.90456616 69.43314602 -86.90456616 69.43314602 -86.0625 66.8125 C-86.041875 66.214375 -86.02125 65.61625 -86 65 C-88.64 65 -91.28 65 -94 65 C-94 59.72 -94 54.44 -94 49 C-90.32519731 51.20488161 -86.73456952 53.46037615 -83.16015625 55.81640625 C-77.95957421 58.66591142 -73.04577039 59.36058716 -67.1875 59.3125 C-66.48189941 59.30758545 -65.77629883 59.3026709 -65.04931641 59.29760742 C-56.01494426 59.09506631 -50.60661651 56.96206855 -44 51 C-43.34 51 -42.68 51 -42 51 C-41.731875 50.319375 -41.46375 49.63875 -41.1875 48.9375 C-40.33444859 46.82732019 -39.40851968 44.74606172 -38.4375 42.6875 C-36.85356631 38.62436574 -36.37897284 35.32029041 -36 31 C-35.01 31 -34.02 31 -33 31 C-33 40.57 -33 50.14 -33 60 C-31.35 60 -29.7 60 -28 60 C-28 45.15 -28 30.3 -28 15 C-24.37 15 -20.74 15 -17 15 C-18.98 17.31 -20.96 19.62 -23 22 C-21.948125 21.030625 -20.89625 20.06125 -19.8125 19.0625 C-16.94065245 16.58173738 -14.8992756 15.23631973 -11 15 C-10.93941406 14.28457031 -10.87882812 13.56914062 -10.81640625 12.83203125 C-9.72608745 9.0498249 -7.77381336 7.38020256 -4.9375 4.6875 C-3.55884766 3.36298828 -3.55884766 3.36298828 -2.15234375 2.01171875 C-1.44207031 1.34785156 -0.73179687 0.68398437 0 0 Z " fill="#FBFCFA" transform="translate(261,119)"/>
<path d="M0 0 C5.34602175 4.87257333 8.48906006 9.35955292 9.5 16.5625 C9.29370135 23.35746169 5.70997338 30.0968629 1.13671875 34.99609375 C-7.4496955 41.89619819 -17.32496227 43.07078711 -28.03271484 42.26318359 C-35.76783472 41.22837853 -42.48259629 37.3641425 -48 32 C-48.33 36.95 -48.66 41.9 -49 47 C-46.36 47 -43.72 47 -41 47 C-41.3125 49.375 -41.3125 49.375 -42 52 C-45 54 -45 54 -49 54 C-48.505 60.435 -48.505 60.435 -48 67 C-45.525 66.505 -45.525 66.505 -43 66 C-43.66 68.97 -44.32 71.94 -45 75 C-44.60167969 74.44570312 -44.20335937 73.89140625 -43.79296875 73.3203125 C-43.26316406 72.59585938 -42.73335937 71.87140625 -42.1875 71.125 C-41.66542969 70.40570313 -41.14335937 69.68640625 -40.60546875 68.9453125 C-39 67 -39 67 -36 65 C-34.68 65 -33.36 65 -32 65 C-32.64449607 68.01217112 -33.65022182 70.51655836 -35.0625 73.25 C-35.42472656 73.95640625 -35.78695312 74.6628125 -36.16015625 75.390625 C-36.57587891 76.18726563 -36.57587891 76.18726563 -37 77 C-36.45730469 76.51789063 -35.91460937 76.03578125 -35.35546875 75.5390625 C-34.64003906 74.90742188 -33.92460937 74.27578125 -33.1875 73.625 C-32.47980469 72.99851562 -31.77210938 72.37203125 -31.04296875 71.7265625 C-27.84771796 69.02617847 -25.97668063 67.73846949 -21.8125 67.875 C-20.554375 67.91625 -19.29625 67.9575 -18 68 C-18.495 69.485 -18.495 69.485 -19 71 C-19.66 71 -20.32 71 -21 71 C-21 71.66 -21 72.32 -21 73 C-22.5 74.625 -22.5 74.625 -24 76 C-23.37351562 76.17015625 -22.74703125 76.3403125 -22.1015625 76.515625 C-20.87566406 76.87914062 -20.87566406 76.87914062 -19.625 77.25 C-18.81289062 77.48203125 -18.00078125 77.7140625 -17.1640625 77.953125 C-14.50976507 79.23715336 -14.1723066 80.37736943 -13 83 C-43.49130591 90.35075723 -43.49130591 90.35075723 -59 89 C-59.93070313 88.92652344 -60.86140625 88.85304688 -61.8203125 88.77734375 C-73.90913146 87.08646393 -86.05214964 79.04651013 -95 71 C-95 70.34 -95 69.68 -95 69 C-95.66 69 -96.32 69 -97 69 C-98.2890625 67.46875 -98.2890625 67.46875 -99.625 65.5 C-100.07101563 64.8503125 -100.51703125 64.200625 -100.9765625 63.53125 C-101.48316406 62.77328125 -101.48316406 62.77328125 -102 62 C-101.34 62 -100.68 62 -100 62 C-99.773125 61.443125 -99.54625 60.88625 -99.3125 60.3125 C-97.61916943 57.32901281 -95.50846429 55.33345516 -93 53 C-92.2575 52.29875 -91.515 51.5975 -90.75 50.875 C-82.89715968 45.52079069 -74.66820878 45.61327607 -65.4375 45.8125 C-63.63829102 45.83280273 -63.63829102 45.83280273 -61.80273438 45.85351562 C-58.86801121 45.888592 -55.93425118 45.93774573 -53 46 C-53.01571045 45.06728271 -53.0314209 44.13456543 -53.04760742 43.17358398 C-53.09897981 39.68654736 -53.13646769 36.1999176 -53.16479492 32.71264648 C-53.17980722 31.20834983 -53.20022353 29.70409639 -53.22631836 28.19995117 C-53.26303816 26.02772304 -53.27980161 23.85607749 -53.29296875 21.68359375 C-53.3086792 20.37962646 -53.32438965 19.07565918 -53.34057617 17.73217773 C-52.73240697 11.06760241 -49.90838558 5.61607478 -45 1 C-31.46341528 -9.84479732 -14.41539749 -9.46753828 0 0 Z " fill="#86A92D" transform="translate(216,137)"/>
<path d="M0 0 C7.43390587 4.6723669 12.12616803 11.66351789 15.6875 19.5 C15.99494141 20.15097656 16.30238281 20.80195312 16.61914062 21.47265625 C18.22598879 24.9535746 19.4517268 28.19863915 20 32 C16.60711611 29.73807741 16.03293566 28.35847824 14.3125 24.75 C11.46224977 19.39434462 8.5868932 15.5939147 3 13 C-1.29581386 11.97449556 -4.33590112 12.64240829 -8.25 14.75 C-9.1575 15.4925 -10.065 16.235 -11 17 C-11.680625 17.556875 -12.36125 18.11375 -13.0625 18.6875 C-18.52398469 25.20604625 -21.33190046 33.02551256 -24 41 C-23.21496094 40.79503906 -22.42992187 40.59007812 -21.62109375 40.37890625 C-20.57050781 40.10949219 -19.51992187 39.84007812 -18.4375 39.5625 C-17.40496094 39.29566406 -16.37242187 39.02882812 -15.30859375 38.75390625 C11.13040398 32.72943569 36.00411258 39.3223414 58.6484375 53.265625 C59.42445313 53.83796875 60.20046875 54.4103125 61 55 C61 55.66 61 56.32 61 57 C61.56074219 57.2371875 62.12148437 57.474375 62.69921875 57.71875 C74.28270201 64.16931453 82.48511413 78.36419684 88 90 C88 90.66 88 91.32 88 92 C93.76259012 87.1017984 96.55960138 79.63085817 97.2578125 72.2890625 C97.43507877 67.88104115 97.46763627 64.8813145 95.375 60.9375 C90.7049587 57.12772946 85.87376018 56.74165421 80 56.8125 C78.824375 56.81894531 77.64875 56.82539062 76.4375 56.83203125 C73.21294531 56.98959472 70.16820926 57.39630159 67 58 C67.33 57.01 67.66 56.02 68 55 C79.23192409 52.25332861 93.91650382 48.69871008 104.9375 53.75 C108.34004295 56.24982747 109.65380953 57.89467886 110.3359375 62.04296875 C110.56771172 74.76737316 101.42488957 87.18214903 94 97 C93.01 97.495 93.01 97.495 92 98 C92.56739868 102.12973628 92.56739868 102.12973628 94 106 C94.72500685 111.01420824 95.04903364 115.85272026 95.03515625 120.91796875 C95.04095703 121.94470703 95.04675781 122.97144531 95.05273438 124.02929688 C95.05928131 126.14657675 95.03813632 128.26411132 94.99023438 130.38085938 C94.97976814 136.14679937 94.97976814 136.14679937 97.72021484 140.99365234 C99.75082475 142.53029218 101.76395412 143.78691926 104 145 C106.04339359 146.28502626 108.02134809 147.61494366 110 149 C110 149.66 110 150.32 110 151 C110.57234375 151.2475 111.1446875 151.495 111.734375 151.75 C114.35010611 153.19316199 116.14773456 154.88216222 118.25 157 C119.30960937 158.051875 119.30960937 158.051875 120.390625 159.125 C122 161 122 161 122 163 C122.66 163 123.32 163 124 163 C127.97087335 168.74358467 129.83874114 173.49892629 129.484375 180.546875 C128.73641771 184.33491676 127.1191605 185.83014922 124 188 C119.5065173 190.58163912 115.41441921 191.65372107 110.3125 192.1875 C109.26618408 192.30702026 109.26618408 192.30702026 108.19873047 192.42895508 C93.09064467 194.04532234 93.09064467 194.04532234 89 192 C89 191.34 89 190.68 89 190 C90.35931641 189.96132813 90.35931641 189.96132813 91.74609375 189.921875 C100.74238139 189.50300023 106.94253041 188.08382292 114.5625 183.4375 C117.10182414 179.13168949 116.81955909 174.83346265 116 170 C112.57901041 161.06664662 103.94159124 151.29439416 96 146 C96 145.34 96 144.68 96 144 C95.34 144 94.68 144 94 144 C93.88914062 144.65871094 93.77828125 145.31742188 93.6640625 145.99609375 C91.12486909 157.48220984 86.45324898 168.19950506 80 178 C79.51015625 178.75539062 79.0203125 179.51078125 78.515625 180.2890625 C77.41685294 181.91136713 76.2197606 183.46658667 75 185 C74.34 185 73.68 185 73 185 C72.68482422 185.81597656 72.68482422 185.81597656 72.36328125 186.6484375 C70.4961443 189.86911499 67.91986553 192.15364642 65.1875 194.625 C64.66607422 195.11484375 64.14464844 195.6046875 63.60742188 196.109375 C60.58432288 198.87205723 57.91826252 200.768753 54 202 C54.639375 201.360625 55.27875 200.72125 55.9375 200.0625 C56.39253906 199.60359375 56.84757813 199.1446875 57.31640625 198.671875 C58.5591591 197.43777241 59.81977476 196.22159705 61.08984375 195.015625 C72.70492464 183.81749573 82.06173545 168.81228023 86 153 C86.20238281 152.27039063 86.40476562 151.54078125 86.61328125 150.7890625 C89.75877903 137.22276597 90.37310297 118.74620593 84 106 C82.34507626 107.57382947 80.70133976 109.15942902 79.0625 110.75 C78.14597656 111.63171875 77.22945312 112.5134375 76.28515625 113.421875 C74.09629523 115.89135922 73.57530395 116.8989714 73 120 C71.33333333 120.66666667 69.66666667 121.33333333 68 122 C65.84390234 123.8827895 63.95925525 125.90405252 62 128 C61.34 127.67 60.68 127.34 60 127 C61.98 125.02 63.96 123.04 66 121 C62.7 120.67 59.4 120.34 56 120 C56 134.85 56 149.7 56 165 C54.35 165 52.7 165 51 165 C50.95360944 157.00257242 50.91809673 149.00520129 50.89637566 141.00767231 C50.88594935 137.2938848 50.87181131 133.58018952 50.84912109 129.86645508 C50.82735144 126.28085107 50.8154227 122.69533565 50.81024551 119.10967064 C50.80655715 117.74336541 50.79935466 116.3770649 50.78853989 115.0107975 C50.77397104 113.09359105 50.77318262 111.176295 50.77294922 109.2590332 C50.768508 108.16871292 50.76406677 107.07839264 50.75949097 105.95503235 C51.07451465 102.08447014 51.94251968 99.18000953 54.55078125 96.26953125 C60.78866014 91.11048729 64.92229127 89.72617937 73 90 C73 90.99 73 91.98 73 93 C72.09636719 93.24234375 71.19273437 93.4846875 70.26171875 93.734375 C69.08222656 94.06953125 67.90273437 94.4046875 66.6875 94.75 C64.92986328 95.23726562 64.92986328 95.23726562 63.13671875 95.734375 C59.71037588 97.11685954 58.58410686 97.69977737 57 101 C56.63082726 103.64902575 56.40031112 106.09559527 56.3125 108.75 C56.27833984 109.44738281 56.24417969 110.14476563 56.20898438 110.86328125 C56.12691705 112.57497108 56.06177081 114.2874576 56 116 C65.30872679 116.82033834 65.30872679 116.82033834 73.86962891 113.7734375 C75.61995338 112.21626261 77.12508795 110.61124701 78.625 108.8125 C79.34296753 107.96522339 79.34296753 107.96522339 80.07543945 107.10083008 C81.57311615 105.21031745 81.57311615 105.21031745 83 102 C82.65022785 98.93591077 82.65022785 98.93591077 81 96 C80.71995117 95.41420166 80.43990234 94.82840332 80.15136719 94.22485352 C75.16786798 84.08885632 69.06255597 75.85737116 61 68 C60.01773438 67.00419922 60.01773438 67.00419922 59.015625 65.98828125 C53.17104537 60.43093523 46.07428626 56.74569145 39 53 C38.20464844 52.57460937 37.40929687 52.14921875 36.58984375 51.7109375 C20.99427468 44.07348125 -1.20483904 42.27803781 -18 47 C-19.01320312 47.268125 -20.02640625 47.53625 -21.0703125 47.8125 C-33.55202843 51.35341232 -43.81199555 57.03100447 -54 65 C-54.63550781 65.46921875 -55.27101563 65.9384375 -55.92578125 66.421875 C-64.65866458 73.24757691 -70.62327898 83.46949843 -76 93 C-76.6796875 91.31640625 -76.6796875 91.31640625 -77 89 C-75.8203125 86.52734375 -75.8203125 86.52734375 -74.125 83.9375 C-72.37261066 81.22740951 -71.02402725 79.07208174 -70 76 C-69.34 76 -68.68 76 -68 76 C-67.731875 75.443125 -67.46375 74.88625 -67.1875 74.3125 C-64.68949496 69.44796387 -62.10817256 65.68682153 -58 62 C-57.34 62 -56.68 62 -56 62 C-56 61.34 -56 60.68 -56 60 C-51.52941176 56 -51.52941176 56 -49 56 C-49 55.34 -49 54.68 -49 54 C-48.071875 53.46375 -47.14375 52.9275 -46.1875 52.375 C-45.55714844 52.00117187 -44.92679688 51.62734375 -44.27734375 51.2421875 C-42 50 -42 50 -39.19140625 48.8203125 C-33.34619951 46.26573758 -33.34619951 46.26573758 -29.734375 41.26171875 C-28.99916435 38.18400181 -28.47795915 35.12698696 -28 32 C-25.04776993 21.11587468 -20.25902632 8.58237483 -11.6875 0.9375 C-7.64730179 -0.47187147 -4.20738657 -0.98873584 0 0 Z " fill="#488BC7" transform="translate(177,14)"/>
<path d="M0 0 C7.43390587 4.6723669 12.12616803 11.66351789 15.6875 19.5 C15.99494141 20.15097656 16.30238281 20.80195312 16.61914062 21.47265625 C18.22598879 24.9535746 19.4517268 28.19863915 20 32 C16.60711611 29.73807741 16.03293566 28.35847824 14.3125 24.75 C11.46224977 19.39434462 8.5868932 15.5939147 3 13 C-1.29581386 11.97449556 -4.33590112 12.64240829 -8.25 14.75 C-9.1575 15.4925 -10.065 16.235 -11 17 C-11.680625 17.556875 -12.36125 18.11375 -13.0625 18.6875 C-18.52398469 25.20604625 -21.33190046 33.02551256 -24 41 C-23.21496094 40.79503906 -22.42992187 40.59007812 -21.62109375 40.37890625 C-20.57050781 40.10949219 -19.51992187 39.84007812 -18.4375 39.5625 C-17.40496094 39.29566406 -16.37242187 39.02882812 -15.30859375 38.75390625 C11.13040398 32.72943569 36.00411258 39.3223414 58.6484375 53.265625 C59.42445313 53.83796875 60.20046875 54.4103125 61 55 C61 55.66 61 56.32 61 57 C61.56074219 57.2371875 62.12148437 57.474375 62.69921875 57.71875 C74.28270201 64.16931453 82.48511413 78.36419684 88 90 C88 90.66 88 91.32 88 92 C88.66 92.33 89.32 92.66 90 93 C89.21654285 94.17219543 88.42297164 95.33763668 87.625 96.5 C86.96371094 97.47453125 86.96371094 97.47453125 86.2890625 98.46875 C85.65097656 99.22671875 85.65097656 99.22671875 85 100 C84.34 100 83.68 100 83 100 C82.443125 98.88882813 81.88625 97.77765625 81.3125 96.6328125 C76.93676855 88.04370006 72.55597378 80.15544999 66 73 C65.33742187 72.24589844 64.67484375 71.49179688 63.9921875 70.71484375 C51.41559093 57.18688102 34.02912532 48.97630454 16 46 C14.31970703 45.7215625 14.31970703 45.7215625 12.60546875 45.4375 C2.48170995 44.20904823 -8.14909629 44.23041685 -18 47 C-19.01320312 47.268125 -20.02640625 47.53625 -21.0703125 47.8125 C-33.55202843 51.35341232 -43.81199555 57.03100447 -54 65 C-54.63550781 65.46921875 -55.27101563 65.9384375 -55.92578125 66.421875 C-64.65866458 73.24757691 -70.62327898 83.46949843 -76 93 C-76.6796875 91.31640625 -76.6796875 91.31640625 -77 89 C-75.8203125 86.52734375 -75.8203125 86.52734375 -74.125 83.9375 C-72.37261066 81.22740951 -71.02402725 79.07208174 -70 76 C-69.34 76 -68.68 76 -68 76 C-67.731875 75.443125 -67.46375 74.88625 -67.1875 74.3125 C-64.68949496 69.44796387 -62.10817256 65.68682153 -58 62 C-57.34 62 -56.68 62 -56 62 C-56 61.34 -56 60.68 -56 60 C-51.52941176 56 -51.52941176 56 -49 56 C-49 55.34 -49 54.68 -49 54 C-48.071875 53.46375 -47.14375 52.9275 -46.1875 52.375 C-45.55714844 52.00117187 -44.92679688 51.62734375 -44.27734375 51.2421875 C-42 50 -42 50 -39.19140625 48.8203125 C-33.34619951 46.26573758 -33.34619951 46.26573758 -29.734375 41.26171875 C-28.99916435 38.18400181 -28.47795915 35.12698696 -28 32 C-25.04776993 21.11587468 -20.25902632 8.58237483 -11.6875 0.9375 C-7.64730179 -0.47187147 -4.20738657 -0.98873584 0 0 Z " fill="#76AB59" transform="translate(177,14)"/>
<path d="M0 0 C4.03211698 2.5500863 7.16503455 5.55745207 9 10 C10.37066308 16.74706244 10.78869364 23.01439025 7 29 C1.82266011 35.3392997 -5.8129472 38.28201812 -13.765625 39.3828125 C-22.0185576 39.73650961 -29.33566392 37.44289072 -36.1875 32.875 C-38 31 -38 31 -38 29 C-38.66 29 -39.32 29 -40 29 C-43.26106648 23.83664475 -43.8267699 18.96992292 -43 13 C-42.34 12.34 -41.68 11.68 -41 11 C-41 10.01 -41 9.02 -41 8 C-31.53191441 -6.40924276 -14.78064576 -7.70294229 0 0 Z " fill="#F8FAFB" transform="translate(144,138)"/>
<path d="M0 0 C5.18567637 3.08205294 9.56638674 7.72259771 11.484375 13.4765625 C11.99186417 19.69330479 12.2563583 25.24445663 8.484375 30.4765625 C3.42464609 35.78470187 -1.61014029 39.20165129 -9.01171875 39.72265625 C-18.82599704 39.88801079 -26.82096955 39.68243704 -34.68359375 33.30859375 C-38.76571102 29.22647648 -41.68084853 24.30284663 -42.203125 18.4765625 C-41.75652023 12.41722204 -37.85552331 7.61576777 -33.51171875 3.64453125 C-23.58167647 -4.09977117 -11.65576463 -4.79334699 0 0 Z " fill="#FBFCFC" transform="translate(208.515625,136.5234375)"/>
<path d="M0 0 C3.96 0 7.92 0 12 0 C12.33 0.66 12.66 1.32 13 2 C13.99 1.34 14.98 0.68 16 0 C21.26218697 -0.70053882 25.63333532 -0.85751509 30.1875 2 C31.0846875 2.99 31.0846875 2.99 32 4 C32.763125 3.34 33.52625 2.68 34.3125 2 C38.83914168 -0.99984093 43.77986882 -0.89199864 49 0 C52.52596861 1.64079727 54.4964288 3.91379865 56.14453125 7.46875 C57.35394708 12.46104182 57.21079611 17.2602321 57.125 22.375 C57.11597656 23.39722656 57.10695313 24.41945312 57.09765625 25.47265625 C57.07420563 27.9818724 57.03833836 30.49096716 57 33 C52.71 33 48.42 33 44 33 C43.505 22.605 43.505 22.605 43 12 C38.36491234 10.466813 38.36491234 10.466813 36.21948242 12.15942383 C34.73402596 14.4014371 34.57812044 15.77201088 34.48828125 18.44921875 C34.45283203 19.29677734 34.41738281 20.14433594 34.38085938 21.01757812 C34.35830078 21.89865234 34.33574219 22.77972656 34.3125 23.6875 C34.27833984 24.58017578 34.24417969 25.47285156 34.20898438 26.39257812 C34.12655533 28.59461121 34.06159953 30.79728582 34 33 C30.04 33 26.08 33 22 33 C21.67 25.74 21.34 18.48 21 11 C14.6 11.2 14.6 11.2 13 13 C12.84344973 14.48638992 12.74933057 15.97949127 12.68359375 17.47265625 C12.64169922 18.37177734 12.59980469 19.27089844 12.55664062 20.19726562 C12.49766602 21.61555664 12.49766602 21.61555664 12.4375 23.0625 C12.39431641 24.01189453 12.35113281 24.96128906 12.30664062 25.93945312 C12.20020868 28.29278176 12.09956846 30.64637099 12 33 C8.04 33 4.08 33 0 33 C0 22.11 0 11.22 0 0 Z " fill="#154B8E" transform="translate(455,158)"/>
<path d="M0 0 C0 0.66 0 1.32 0 2 C-1.15757813 2.18175781 -2.31515625 2.36351563 -3.5078125 2.55078125 C-5.04695908 2.80417733 -6.58601702 3.05811219 -8.125 3.3125 C-8.88554688 3.43044922 -9.64609375 3.54839844 -10.4296875 3.66992188 C-15.1219671 4.45871026 -18.77399838 5.70716933 -23 8 C-23.66 8 -24.32 8 -25 8 C-25 8.66 -25 9.32 -25 10 C-25.66 10 -26.32 10 -27 10 C-28.63746688 17.23214537 -27.17684998 22.35465479 -24 29 C-21.91690066 31.94314815 -21.91690066 31.94314815 -20 34 C-20 34.66 -20 35.32 -20 36 C-19.34 36 -18.68 36 -18 36 C-16.73046875 37.36328125 -16.73046875 37.36328125 -15.1875 39.3125 C-11.84325687 43.25771706 -8.18583617 46.60473991 -4.25 49.9375 C-3.6830542 50.4219458 -3.1161084 50.9063916 -2.53198242 51.40551758 C-0.03332807 53.49386189 1.88199159 54.96066386 5 56 C5 56.99 5 57.98 5 59 C7.31 59.66 9.62 60.32 12 61 C12.38929687 60.48050781 12.77859375 59.96101563 13.1796875 59.42578125 C18.72289756 52.51592724 25.16213469 48.37477905 34 47 C44.65284435 46.16410163 53.42189073 48.54168709 62 55 C67.4670849 60.24879839 70.12640177 64.03182067 70.3125 71.75 C70.22225761 78.56740219 68.86621456 82.02187251 64.19921875 86.87109375 C55.04522525 95.42074593 45.07630864 96.49777469 32.92578125 96.28125 C25.185764 95.7267413 19.41830041 92.5414436 14 87 C9.12402957 80.61480063 8.12741198 74.91561993 9 67 C9.30195875 65.65921299 9.62406016 64.32195239 10 63 C9.15050781 62.75636719 8.30101562 62.51273438 7.42578125 62.26171875 C3.6710719 60.87885544 0.50249547 59.00690779 -2.8125 56.8125 C-3.42851074 56.4088623 -4.04452148 56.00522461 -4.67919922 55.58935547 C-12.10801288 50.67119668 -18.88398934 45.20616657 -25.5 39.25 C-26.02932129 38.77771973 -26.55864258 38.30543945 -27.10400391 37.81884766 C-29.56298065 35.56458415 -30.92672437 34.21982689 -32 31 C-32.66 31 -33.32 31 -34 31 C-38.41936996 25.29164713 -41.62458175 19.33883559 -41 12 C-40 9.625 -40 9.625 -39 8 C-38.34 8 -37.68 8 -37 8 C-37 7.34 -37 6.68 -37 6 C-27.12383468 -1.40712399 -11.81200307 -0.07909823 0 0 Z M18 59.0625 C15.34786678 62.06347244 15.34786678 62.06347244 15 66 C14.34 66.66 13.68 67.32 13 68 C12.1732301 73.96992292 12.73893352 78.83664475 16 84 C16.66 84 17.32 84 18 84 C18.33 84.99 18.66 85.98 19 87 C25.80781571 92.59569243 33.40537588 94.50345328 42.09375 94.3125 C50.08767729 93.45293793 57.83243748 90.32732797 63 84 C66.25552175 78.85672779 66.4766103 73.61445453 65.6875 67.6796875 C64.25391696 62.09197179 61.37137645 58.49751489 56.51953125 55.43359375 C43.53534177 48.70176139 28.41241557 47.8443618 18 59.0625 Z " fill="#14498C" transform="translate(88,83)"/>
<path d="M0 0 C4.88462891 2.86375333 8.46001674 7.10034901 10.5625 12.375 C11.28974799 19.24157401 11.69185671 26.59690549 8.03515625 32.69140625 C4.27221867 36.99333223 -0.77917958 40.34518568 -6.4375 41.375 C-13.72609428 41.86090629 -18.96109798 40.5082467 -25.1875 36.6875 C-29.60813969 32.14406477 -31.96477017 26.70041985 -32.47265625 20.3828125 C-32.36312358 14.12727975 -30.33380913 9.2732172 -26.4375 4.375 C-19.20786335 -2.29851075 -9.13334582 -4.16730608 0 0 Z M-18.4375 13.375 C-20.03203633 16.56407265 -19.82311702 19.90444682 -19.4375 23.375 C-17.70782287 27.12047604 -17.70782287 27.12047604 -14.4375 29.375 C-8.78008799 30.00059723 -8.78008799 30.00059723 -4 27.5 C-1.18379328 23.66995887 -1.11476559 21.13533254 -1.4375 16.375 C-3.08889305 12.8363006 -4.15355229 11.56429847 -7.4375 9.375 C-12.53864766 8.70963291 -14.78440944 9.82628345 -18.4375 13.375 Z " fill="#154B8E" transform="translate(546.4375,81.625)"/>
<path d="M0 0 C4.20673247 3.84871268 6.06618243 7.39709459 7 13 C7.09574193 20.527709 5.51366866 25.22605959 0.3125 30.8125 C-3.24625285 32.63996768 -7.00879296 33.30960459 -11 33 C-12.65 32.01 -14.3 31.02 -16 30 C-16.33 35.94 -16.66 41.88 -17 48 C-20.96 48 -24.92 48 -29 48 C-29 31.83 -29 15.66 -29 -1 C-25.04 -1 -21.08 -1 -17 -1 C-16.67 -0.34 -16.34 0.32 -16 1 C-15.030625 0.46375 -14.06125 -0.0725 -13.0625 -0.625 C-8.42072461 -2.59281148 -4.5547265 -2.01672693 0 0 Z M-15.25 10.5625 C-17.3697984 12.99125919 -17.3697984 12.99125919 -16.875 16.625 C-16.29259286 20.04542055 -16.29259286 20.04542055 -14 22 C-11.22542896 22.35571424 -9.62103204 22.36405327 -7.1875 20.9375 C-5.30978961 17.87386726 -5.56270506 15.49835955 -6 12 C-7.69164222 9.95970404 -7.69164222 9.95970404 -10 9 C-13.04586933 8.7148021 -13.04586933 8.7148021 -15.25 10.5625 Z " fill="#154B8E" transform="translate(591,90)"/>
<path d="M0 0 C3.96 0 7.92 0 12 0 C12 14.52 12 29.04 12 44 C8.04 44 4.08 44 0 44 C-0.33 43.34 -0.66 42.68 -1 42 C-1.680625 42.495 -2.36125 42.99 -3.0625 43.5 C-6.75892795 45.38753767 -8.8849384 45.49664537 -13 45 C-18.28782336 42.84902101 -21.0581853 40.61824726 -23.34375 35.34765625 C-24.927422 29.68225822 -24.72555345 24.17666035 -22.875 18.625 C-19.91953265 14.48734571 -16.9633072 11.62658741 -12.0625 10.0625 C-8.36591772 9.98705955 -5.47401131 10.77387836 -2 12 C-1.67 12.33 -1.34 12.66 -1 13 C-0.67 8.71 -0.34 4.42 0 0 Z M-9.75 22.1875 C-11.17679775 24.25635674 -11.77851357 25.48982045 -12 28 C-11.58612501 30.74303573 -11.58612501 30.74303573 -10 33 C-7.09648876 34.16448881 -7.09648876 34.16448881 -4 34 C-1.86852095 32.60351373 -1.19224818 31.41196038 -0.125 29.125 C0.0630374 25.92836418 -1.01394524 24.44946754 -3 22 C-5.86838342 20.85264663 -7.14048924 20.41676055 -9.75 22.1875 Z " fill="#154B8E" transform="translate(732,147)"/>
<path d="M0 0 C3.96 0 7.92 0 12 0 C12.33 4.29 12.66 8.58 13 13 C13.99 12.34 14.98 11.68 16 11 C20.37132214 10.34807598 24.99201428 9.99018126 29.01953125 12.015625 C31.64386477 14.13552458 32.93019679 15.79059036 34 19 C34.08266486 20.91906917 34.10740663 22.84089474 34.09765625 24.76171875 C34.09443359 25.87998047 34.09121094 26.99824219 34.08789062 28.15039062 C34.07532227 29.90125977 34.07532227 29.90125977 34.0625 31.6875 C34.05798828 32.86634766 34.05347656 34.04519531 34.04882812 35.25976562 C34.03703285 38.17319867 34.01909727 41.08660567 34 44 C30.04 44 26.08 44 22 44 C21.93941406 42.57945312 21.87882812 41.15890625 21.81640625 39.6953125 C21.73200709 37.83853091 21.64735877 35.98176064 21.5625 34.125 C21.52318359 33.18785156 21.48386719 32.25070313 21.44335938 31.28515625 C21.40146484 30.38925781 21.35957031 29.49335938 21.31640625 28.5703125 C21.27974854 27.74289551 21.24309082 26.91547852 21.20532227 26.06298828 C21.11761673 23.93820571 21.11761673 23.93820571 20 22 C17.69 22 15.38 22 13 22 C12.67 29.26 12.34 36.52 12 44 C8.04 44 4.08 44 0 44 C0 29.48 0 14.96 0 0 Z " fill="#154B8E" transform="translate(349,147)"/>
<path d="M0 0 C0.78761719 0.18304688 1.57523438 0.36609375 2.38671875 0.5546875 C4.3125 1.125 4.3125 1.125 5.3125 2.125 C5.6425 1.465 5.9725 0.805 6.3125 0.125 C10.2725 0.125 14.2325 0.125 18.3125 0.125 C18.3125 11.015 18.3125 21.905 18.3125 33.125 C14.3525 33.125 10.3925 33.125 6.3125 33.125 C5.9825 32.465 5.6525 31.805 5.3125 31.125 C4.631875 31.62 3.95125 32.115 3.25 32.625 C-0.44642795 34.51253767 -2.5724384 34.62164537 -6.6875 34.125 C-11.97370244 31.97468036 -14.75662047 29.74353813 -17.02734375 24.46484375 C-18.73630739 18.40762941 -18.59511691 12.38721876 -16 6.625 C-13.72813963 2.69941795 -11.11728239 0.93492746 -6.82421875 -0.49609375 C-4.27547232 -0.94806524 -2.50823138 -0.6052922 0 0 Z M-3.4375 11.3125 C-4.86429775 13.38135674 -5.46601357 14.61482045 -5.6875 17.125 C-5.27362501 19.86803573 -5.27362501 19.86803573 -3.6875 22.125 C-0.78398876 23.28948881 -0.78398876 23.28948881 2.3125 23.125 C4.44397905 21.72851373 5.12025182 20.53696038 6.1875 18.25 C6.3755374 15.05336418 5.29855476 13.57446754 3.3125 11.125 C0.44411658 9.97764663 -0.82798924 9.54176055 -3.4375 11.3125 Z " fill="#154B8E" transform="translate(827.6875,157.875)"/>
<path d="M0 0 C0.78761719 0.18304688 1.57523438 0.36609375 2.38671875 0.5546875 C4.3125 1.125 4.3125 1.125 5.3125 2.125 C5.6425 1.465 5.9725 0.805 6.3125 0.125 C10.2725 0.125 14.2325 0.125 18.3125 0.125 C18.3125 11.015 18.3125 21.905 18.3125 33.125 C14.3525 33.125 10.3925 33.125 6.3125 33.125 C5.9825 32.465 5.6525 31.805 5.3125 31.125 C4.631875 31.62 3.95125 32.115 3.25 32.625 C-0.44642795 34.51253767 -2.5724384 34.62164537 -6.6875 34.125 C-11.97370244 31.97468036 -14.75662047 29.74353813 -17.02734375 24.46484375 C-18.73630739 18.40762941 -18.59511691 12.38721876 -16 6.625 C-13.72813963 2.69941795 -11.11728239 0.93492746 -6.82421875 -0.49609375 C-4.27547232 -0.94806524 -2.50823138 -0.6052922 0 0 Z M-3.4375 11.3125 C-4.86429775 13.38135674 -5.46601357 14.61482045 -5.6875 17.125 C-5.27362501 19.86803573 -5.27362501 19.86803573 -3.6875 22.125 C-0.78398876 23.28948881 -0.78398876 23.28948881 2.3125 23.125 C4.44397905 21.72851373 5.12025182 20.53696038 6.1875 18.25 C6.3755374 15.05336418 5.29855476 13.57446754 3.3125 11.125 C0.44411658 9.97764663 -0.82798924 9.54176055 -3.4375 11.3125 Z " fill="#154B8E" transform="translate(532.6875,157.875)"/>
<path d="M0 0 C0.78761719 0.18304688 1.57523437 0.36609375 2.38671875 0.5546875 C4.3125 1.125 4.3125 1.125 5.3125 2.125 C5.6425 1.465 5.9725 0.805 6.3125 0.125 C10.2725 0.125 14.2325 0.125 18.3125 0.125 C18.3125 11.015 18.3125 21.905 18.3125 33.125 C14.3525 33.125 10.3925 33.125 6.3125 33.125 C5.9825 32.465 5.6525 31.805 5.3125 31.125 C4.631875 31.62 3.95125 32.115 3.25 32.625 C-0.44642795 34.51253767 -2.5724384 34.62164537 -6.6875 34.125 C-11.97370244 31.97468036 -14.75662047 29.74353813 -17.02734375 24.46484375 C-18.73630739 18.40762941 -18.59511691 12.38721876 -16 6.625 C-13.72813963 2.69941795 -11.11728239 0.93492746 -6.82421875 -0.49609375 C-4.27547232 -0.94806524 -2.50823138 -0.6052922 0 0 Z M-3.4375 11.3125 C-4.86429775 13.38135674 -5.46601357 14.61482045 -5.6875 17.125 C-5.27362501 19.86803573 -5.27362501 19.86803573 -3.6875 22.125 C-0.78398876 23.28948881 -0.78398876 23.28948881 2.3125 23.125 C4.44397905 21.72851373 5.12025182 20.53696038 6.1875 18.25 C6.3755374 15.05336418 5.29855476 13.57446754 3.3125 11.125 C0.44411658 9.97764663 -0.82798924 9.54176055 -3.4375 11.3125 Z " fill="#154B8E" transform="translate(404.6875,157.875)"/>
<path d="M0 0 C0.78761719 0.18304688 1.57523438 0.36609375 2.38671875 0.5546875 C4.3125 1.125 4.3125 1.125 5.3125 2.125 C5.6425 1.465 5.9725 0.805 6.3125 0.125 C10.2725 0.125 14.2325 0.125 18.3125 0.125 C18.3125 11.015 18.3125 21.905 18.3125 33.125 C14.3525 33.125 10.3925 33.125 6.3125 33.125 C5.9825 32.465 5.6525 31.805 5.3125 31.125 C4.631875 31.62 3.95125 32.115 3.25 32.625 C-0.44642795 34.51253767 -2.5724384 34.62164537 -6.6875 34.125 C-11.97370244 31.97468036 -14.75662047 29.74353813 -17.02734375 24.46484375 C-18.73630739 18.40762941 -18.59511691 12.38721876 -16 6.625 C-13.72813963 2.69941795 -11.11728239 0.93492746 -6.82421875 -0.49609375 C-4.27547232 -0.94806524 -2.50823138 -0.6052922 0 0 Z M-3.4375 11.3125 C-4.86429775 13.38135674 -5.46601357 14.61482045 -5.6875 17.125 C-5.27362501 19.86803573 -5.27362501 19.86803573 -3.6875 22.125 C-0.78398876 23.28948881 -0.78398876 23.28948881 2.3125 23.125 C4.44397905 21.72851373 5.12025182 20.53696038 6.1875 18.25 C6.3755374 15.05336418 5.29855476 13.57446754 3.3125 11.125 C0.44411658 9.97764663 -0.82798924 9.54176055 -3.4375 11.3125 Z " fill="#154B8E" transform="translate(678.6875,88.875)"/>
<path d="M0 0 C4.62 0 9.24 0 14 0 C15.98 4.95 17.96 9.9 20 15 C20.804375 13.081875 21.60875 11.16375 22.4375 9.1875 C22.88996094 8.10855469 23.34242188 7.02960938 23.80859375 5.91796875 C24.60375013 3.9704874 25.33479648 1.99561057 26 0 C30.62 0 35.24 0 40 0 C38.78836511 3.63490467 37.62943099 7.03211611 36.13647461 10.52075195 C35.77947983 11.35794266 35.42248505 12.19513336 35.05467224 13.05769348 C34.48426964 14.38458443 34.48426964 14.38458443 33.90234375 15.73828125 C33.50801651 16.65965378 33.11368927 17.58102631 32.70741272 18.53031921 C31.87733618 20.46806859 31.04604942 22.40529993 30.21362305 24.34204102 C28.93501476 27.31828494 27.6616038 30.29671521 26.38867188 33.27539062 C25.58103896 35.15898703 24.77310681 37.04245516 23.96484375 38.92578125 C23.58255112 39.82049637 23.20025848 40.71521149 22.80638123 41.63703918 C22.4525386 42.45846909 22.09869598 43.27989899 21.73413086 44.1262207 C21.42261581 44.85202835 21.11110077 45.577836 20.79014587 46.32563782 C20 48 20 48 19 49 C16.81360547 49.07258946 14.62499611 49.08373783 12.4375 49.0625 C10.64119141 49.04896484 10.64119141 49.04896484 8.80859375 49.03515625 C7.88175781 49.02355469 6.95492187 49.01195312 6 49 C6.41020877 47.68546734 6.82868253 46.37351447 7.25 45.0625 C7.48203125 44.33160156 7.7140625 43.60070312 7.953125 42.84765625 C9 40 9 40 10.22167969 38.22021484 C11.76865696 35.71775161 12.53975638 33.92448595 13 31 C11.60283843 25.50924645 9.21302718 20.58278149 6.75 15.5 C6.10236949 14.10560194 5.45780535 12.70977535 4.81640625 11.3125 C3.6488707 8.77367213 2.46197461 6.2457776 1.25683594 3.72460938 C0 1 0 1 0 0 Z " fill="#154B8E" transform="translate(588,158)"/>
<path d="M0 0 C24.53846154 0 24.53846154 0 30 4.4375 C33.54012797 8.97328896 33.52736866 13.46262912 33 19 C31.15810959 23.60472604 28.45531067 25.88958968 24 28 C19.93545933 28.32703201 16.09024551 28.18178869 12 28 C12 32.62 12 37.24 12 42 C8.04 42 4.08 42 0 42 C0 28.14 0 14.28 0 0 Z M12 10 C12 12.97 12 15.94 12 19 C14.64 18.67 17.28 18.34 20 18 C20.33 16.35 20.66 14.7 21 13 C18.64031256 10.90250005 17.45383006 10.03094296 14.25 9.8125 C13.5075 9.874375 12.765 9.93625 12 10 Z " fill="#154B8E" transform="translate(312,149)"/>
<path d="M0 0 C4.63197689 5.210974 5.56101617 9.73498261 5.34765625 16.5625 C4.63673274 22.05817834 2.37849048 25.15869504 -2 28.625 C-7.2495071 31.46848301 -12.14962579 32.16401406 -18.08984375 30.75390625 C-23.76472142 28.88341584 -26.33711328 26.2431961 -29.25 21 C-31.0035845 14.57019017 -30.62283511 8.82770647 -27.3359375 2.9765625 C-20.77647788 -5.50086777 -8.52082181 -4.97047939 0 0 Z M-15.625 8.4375 C-17.41077626 10.7914778 -17.85924966 12.29424292 -18 15.25 C-17.02522193 18.12502253 -17.02522193 18.12502253 -15 20.25 C-12.5 21.08333333 -12.5 21.08333333 -10 20.25 C-7.48608713 17.40089874 -6.97569955 15.86966137 -7.125 12.0625 C-7.77005187 8.94851109 -7.77005187 8.94851109 -11 7.25 C-13.93174698 6.95499171 -13.93174698 6.95499171 -15.625 8.4375 Z " fill="#154B8E" transform="translate(922,160.75)"/>
<path d="M0 0 C3.96 0 7.92 0 12 0 C12.33 0.66 12.66 1.32 13 2 C13.99 1.34 14.98 0.68 16 0 C20.37132214 -0.65192402 24.99201428 -1.00981874 29.01953125 1.015625 C31.64386477 3.13552458 32.93019679 4.79059036 34 8 C34.08266486 9.91906917 34.10740663 11.84089474 34.09765625 13.76171875 C34.09443359 14.87998047 34.09121094 15.99824219 34.08789062 17.15039062 C34.07532227 18.90125977 34.07532227 18.90125977 34.0625 20.6875 C34.05798828 21.86634766 34.05347656 23.04519531 34.04882812 24.25976562 C34.03703285 27.17319867 34.01909727 30.08660567 34 33 C30.04 33 26.08 33 22 33 C21.93941406 31.57945312 21.87882813 30.15890625 21.81640625 28.6953125 C21.73200709 26.83853091 21.64735877 24.98176064 21.5625 23.125 C21.52318359 22.18785156 21.48386719 21.25070313 21.44335938 20.28515625 C21.40146484 19.38925781 21.35957031 18.49335938 21.31640625 17.5703125 C21.27974854 16.74289551 21.24309082 15.91547852 21.20532227 15.06298828 C21.11761673 12.93820571 21.11761673 12.93820571 20 11 C17.69 11 15.38 11 13 11 C12.67 18.26 12.34 25.52 12 33 C8.04 33 4.08 33 0 33 C0 22.11 0 11.22 0 0 Z " fill="#154B8E" transform="translate(931,158)"/>
<path d="M0 0 C3.96 0 7.92 0 12 0 C12.33 0.66 12.66 1.32 13 2 C13.99 1.34 14.98 0.68 16 0 C20.37132214 -0.65192402 24.99201428 -1.00981874 29.01953125 1.015625 C31.64386477 3.13552458 32.93019679 4.79059036 34 8 C34.08266486 9.91906917 34.10740663 11.84089474 34.09765625 13.76171875 C34.09443359 14.87998047 34.09121094 15.99824219 34.08789062 17.15039062 C34.07532227 18.90125977 34.07532227 18.90125977 34.0625 20.6875 C34.05798828 21.86634766 34.05347656 23.04519531 34.04882812 24.25976562 C34.03703285 27.17319867 34.01909727 30.08660567 34 33 C30.04 33 26.08 33 22 33 C21.93941406 31.57945313 21.87882813 30.15890625 21.81640625 28.6953125 C21.73200709 26.83853091 21.64735877 24.98176064 21.5625 23.125 C21.52318359 22.18785156 21.48386719 21.25070313 21.44335938 20.28515625 C21.40146484 19.38925781 21.35957031 18.49335937 21.31640625 17.5703125 C21.27974854 16.74289551 21.24309082 15.91547852 21.20532227 15.06298828 C21.11761673 12.93820571 21.11761673 12.93820571 20 11 C17.69 11 15.38 11 13 11 C12.67 18.26 12.34 25.52 12 33 C8.04 33 4.08 33 0 33 C0 22.11 0 11.22 0 0 Z " fill="#154B8E" transform="translate(703,89)"/>
<path d="M0 0 C4.68785776 5.25608295 5.0625 9.28846015 5.0625 16.3125 C-2.1975 16.3125 -9.4575 16.3125 -16.9375 16.3125 C-15.9475 17.6325 -14.9575 18.9525 -13.9375 20.3125 C-11.18108584 19.81493908 -11.18108584 19.81493908 -8.9375 18.3125 C-6.75110547 18.23991054 -4.56249611 18.22876217 -2.375 18.25 C-0.57869141 18.26353516 -0.57869141 18.26353516 1.25390625 18.27734375 C2.18074219 18.28894531 3.10757813 18.30054688 4.0625 18.3125 C3.30548748 22.75067144 2.3030433 25.0719567 -0.9375 28.3125 C-5.81714515 31.03384057 -10.39073787 32.26337351 -15.9375 31.3125 C-21.2300334 29.51940125 -24.87509111 27.08985787 -27.9375 22.3125 C-29.85545402 16.55863793 -29.83053484 10.50643183 -27.3125 4.9375 C-24.66210835 0.31797934 -21.24692043 -1.95268441 -16.1875 -3.5625 C-10.386533 -3.78561412 -5.06022394 -2.90693716 0 0 Z M-15.1875 8.25 C-16.05375 9.2709375 -16.05375 9.2709375 -16.9375 10.3125 C-13.9675 10.3125 -10.9975 10.3125 -7.9375 10.3125 C-8.57691744 7.2319894 -8.57691744 7.2319894 -10.75 6.375 C-13.15578941 6.06037037 -13.15578941 6.06037037 -15.1875 8.25 Z " fill="#154B8E" transform="translate(776.9375,160.6875)"/>
<path d="M0 0 C4.68785776 5.25608295 5.0625 9.28846015 5.0625 16.3125 C-2.1975 16.3125 -9.4575 16.3125 -16.9375 16.3125 C-15.9475 17.6325 -14.9575 18.9525 -13.9375 20.3125 C-11.18108584 19.81493908 -11.18108584 19.81493908 -8.9375 18.3125 C-6.75110547 18.23991054 -4.56249611 18.22876217 -2.375 18.25 C-0.57869141 18.26353516 -0.57869141 18.26353516 1.25390625 18.27734375 C2.18074219 18.28894531 3.10757813 18.30054688 4.0625 18.3125 C3.30548748 22.75067144 2.3030433 25.0719567 -0.9375 28.3125 C-5.81714515 31.03384057 -10.39073787 32.26337351 -15.9375 31.3125 C-21.2300334 29.51940125 -24.87509111 27.08985787 -27.9375 22.3125 C-29.85545402 16.55863793 -29.83053484 10.50643183 -27.3125 4.9375 C-24.66210835 0.31797934 -21.24692043 -1.95268441 -16.1875 -3.5625 C-10.386533 -3.78561412 -5.06022394 -2.90693716 0 0 Z M-15.1875 8.25 C-16.05375 9.2709375 -16.05375 9.2709375 -16.9375 10.3125 C-13.9675 10.3125 -10.9975 10.3125 -7.9375 10.3125 C-8.57691744 7.2319894 -8.57691744 7.2319894 -10.75 6.375 C-13.15578941 6.06037037 -13.15578941 6.06037037 -15.1875 8.25 Z " fill="#154B8E" transform="translate(700.9375,160.6875)"/>
<path d="M0 0 C4.68785776 5.25608295 5.0625 9.28846015 5.0625 16.3125 C-2.1975 16.3125 -9.4575 16.3125 -16.9375 16.3125 C-15.9475 17.6325 -14.9575 18.9525 -13.9375 20.3125 C-11.18108584 19.81493908 -11.18108584 19.81493908 -8.9375 18.3125 C-6.75110547 18.23991054 -4.56249611 18.22876217 -2.375 18.25 C-0.57869141 18.26353516 -0.57869141 18.26353516 1.25390625 18.27734375 C2.18074219 18.28894531 3.10757813 18.30054687 4.0625 18.3125 C3.30548748 22.75067144 2.3030433 25.0719567 -0.9375 28.3125 C-5.81714515 31.03384057 -10.39073787 32.26337351 -15.9375 31.3125 C-21.2300334 29.51940125 -24.87509111 27.08985787 -27.9375 22.3125 C-29.85545402 16.55863793 -29.83053484 10.50643183 -27.3125 4.9375 C-24.66210835 0.31797934 -21.24692043 -1.95268441 -16.1875 -3.5625 C-10.386533 -3.78561412 -5.06022394 -2.90693716 0 0 Z M-15.1875 8.25 C-16.05375 9.2709375 -16.05375 9.2709375 -16.9375 10.3125 C-13.9675 10.3125 -10.9975 10.3125 -7.9375 10.3125 C-8.57691744 7.2319894 -8.57691744 7.2319894 -10.75 6.375 C-13.15578941 6.06037037 -13.15578941 6.06037037 -15.1875 8.25 Z " fill="#154B8E" transform="translate(627.9375,91.6875)"/>
<path d="M0 0 C9.57 0 19.14 0 29 0 C29 3.3 29 6.6 29 10 C23.39 10 17.78 10 12 10 C12 12.31 12 14.62 12 17 C15.96 17 19.92 17 24 17 C24 19.97 24 22.94 24 26 C20.04 26 16.08 26 12 26 C12 31.28 12 36.56 12 42 C8.04 42 4.08 42 0 42 C0 28.14 0 14.28 0 0 Z " fill="#154B8E" transform="translate(642,149)"/>
<path d="M0 0 C4 5.125 4 5.125 4 9.5625 C-0.29 9.5625 -4.58 9.5625 -9 9.5625 C-9 8.9025 -9 8.2425 -9 7.5625 C-10.65 7.5625 -12.3 7.5625 -14 7.5625 C-15.80441192 12.24202614 -15.80441192 12.24202614 -15.125 17 C-14.568125 17.7734375 -14.568125 17.7734375 -14 18.5625 C-12.68 18.5625 -11.36 18.5625 -10 18.5625 C-9.67 17.9025 -9.34 17.2425 -9 16.5625 C-4.71 16.5625 -0.42 16.5625 4 16.5625 C2.78010471 23.88187173 2.78010471 23.88187173 -1 27.5625 C-5.87964515 30.28384057 -10.45323787 31.51337351 -16 30.5625 C-21.2925334 28.76940125 -24.93759111 26.33985787 -28 21.5625 C-29.91795402 15.80863793 -29.89303484 9.75643183 -27.375 4.1875 C-24.72460835 -0.43202066 -21.30942043 -2.70268441 -16.25 -4.3125 C-10.12433305 -4.54810257 -4.83304863 -3.92685201 0 0 Z " fill="#154B8E" transform="translate(584,161.4375)"/>
<path d="M0 0 C10.21061461 -0.354809 22.04672266 2.19461836 30 9 C34.1561503 13.58242212 35.12771173 15.99509763 35.0625 22.125 C35.05347656 23.22070312 35.04445312 24.31640625 35.03515625 25.4453125 C35.02355469 26.28835937 35.01195312 27.13140625 35 28 C32.69033211 25.69033211 32.73106647 24.99522274 32.3125 21.875 C31.20645255 16.23507211 28.01068587 12.93561956 24 9 C24.46277344 9.60070312 24.92554688 10.20140625 25.40234375 10.8203125 C29.9059585 16.96460841 30.58566985 23.18296347 31.52734375 30.59765625 C32.07170506 34.51615788 32.93465247 38.1951874 34 42 C34.66 42 35.32 42 36 42 C36.37211538 48.57403846 36.37211538 48.57403846 34.48828125 50.73046875 C33.99714844 51.14941406 33.50601563 51.56835938 33 52 C32.81824219 51.0821875 32.63648438 50.164375 32.44921875 49.21875 C31.68077909 45.46718817 30.8455502 41.73484732 30 38 C29.84144531 37.12859375 29.68289062 36.2571875 29.51953125 35.359375 C29.03765687 32.94080015 29.03765687 32.94080015 27 30 C24.32689731 29.1272434 21.77565535 28.79344686 18.984375 28.46484375 C12.53183445 27.45980144 6.82335138 24.41713497 2.375 19.625 C-1.54911964 13.91518547 -0.46418344 6.60172006 0 0 Z " fill="#8CC543" transform="translate(129,92)"/>
<path d="M0 0 C5.34602175 4.87257333 8.48906006 9.35955292 9.5 16.5625 C9.29370135 23.35746169 5.70997338 30.0968629 1.13671875 34.99609375 C-7.4496955 41.89619819 -17.32496227 43.07078711 -28.03271484 42.26318359 C-35.76783472 41.22837853 -42.48259629 37.3641425 -48 32 C-48.33 36.95 -48.66 41.9 -49 47 C-50.32 47 -51.64 47 -53 47 C-53.07457894 42.42850243 -53.12880276 37.85736491 -53.16479492 33.28540039 C-53.17981105 31.7326032 -53.20023028 30.17984791 -53.22631836 28.62719727 C-53.26302073 26.38547376 -53.27979787 24.14431461 -53.29296875 21.90234375 C-53.30845261 21.21663803 -53.32393646 20.53093231 -53.33988953 19.82444763 C-53.34222998 13.00576674 -51.15381816 7.61017019 -46.57421875 2.48046875 C-33.29966909 -10.00353701 -14.93208259 -9.80687932 0 0 Z M-45.625 8.03515625 C-48.78912808 12.55662336 -49.92721044 16.4660177 -49 22 C-46.50680256 28.85339388 -42.3461353 33.4809964 -36 37 C-28.09648663 40.05047884 -18.07579598 40.59111739 -9.984375 38.0546875 C-4.52117207 35.4539412 0.43151235 32.30383569 3.1015625 26.6796875 C4.78623629 21.65496481 4.95830268 16.02410486 3.34765625 10.94140625 C0.26730412 5.00544871 -4.88043512 0.58403696 -11.0625 -1.875 C-24.80912237 -5.76909439 -36.56543388 -2.96263435 -45.625 8.03515625 Z " fill="#215393" transform="translate(216,137)"/>
<path d="M0 0 C0.33 0 0.66 0 1 0 C0.42067229 12.45554566 -0.49490174 24.75507972 -3 37 C-3.13019531 37.79277344 -3.26039063 38.58554688 -3.39453125 39.40234375 C-5.30116835 50.96689961 -8.33516023 61.71080124 -14 72 C-14.67214794 73.33057858 -15.34060264 74.66305672 -16 76 C-16.66 76 -17.32 76 -18 76 C-18.2475 76.598125 -18.495 77.19625 -18.75 77.8125 C-20.21885474 80.38299579 -21.49506744 81.4355158 -24 83 C-28.68488049 83.85812167 -32.82439489 83.50712377 -37.1875 81.625 C-43.59978326 75.64020229 -47.45917475 68.48495146 -51 60.5625 C-51.47264282 59.51497559 -51.47264282 59.51497559 -51.95483398 58.44628906 C-54.12468189 53.37404568 -54.12468189 53.37404568 -53 50 C-50.78918128 52.21081872 -50.02435864 54.32946334 -48.86328125 57.1875 C-47.63224279 59.77212374 -45.81811925 61.80571815 -44 64 C-44 64.66 -44 65.32 -44 66 C-43.34 66 -42.68 66 -42 66 C-42 66.66 -42 67.32 -42 68 C-37.9793832 69.82755309 -34.43631718 70.92480818 -30 71 C-26.41802951 69.39098652 -22.79687239 67.59374478 -21 64 C-20.34 64 -19.68 64 -19 64 C-18.7525 63.319375 -18.505 62.63875 -18.25 61.9375 C-17 59 -17 59 -15.11328125 55.7890625 C-9.14033767 45.42664312 -6.09578767 33.68143946 -4 22 C-3.64500308 20.07803779 -3.2894933 18.15617027 -2.93359375 16.234375 C-1.93776277 10.82608704 -0.9626855 5.41427859 0 0 Z " fill="#144A8C" transform="translate(210,190)"/>
<path d="M0 0 C3.96 0 7.92 0 12 0 C12 2.64 12 5.28 12 8 C13.98 8 15.96 8 18 8 C18 11.3 18 14.6 18 18 C16.02 18 14.04 18 12 18 C12.33 21.96 12.66 25.92 13 30 C14.65 30.33 16.3 30.66 18 31 C18 34.3 18 37.6 18 41 C7.10055447 41.62580548 7.10055447 41.62580548 2.8125 39.1875 C-0.59319683 35.07717624 -0.12004514 30.88089895 -0.0625 25.8125 C-0.05798828 25.06291016 -0.05347656 24.31332031 -0.04882812 23.54101562 C-0.03706354 21.69397617 -0.01912865 19.84697787 0 18 C-1.32 18 -2.64 18 -4 18 C-4 14.7 -4 11.4 -4 8 C-2.68 8 -1.36 8 0 8 C0 5.36 0 2.72 0 0 Z " fill="#154B8E" transform="translate(854,150)"/>
<path d="M0 0 C3.96 0 7.92 0 12 0 C12 2.64 12 5.28 12 8 C13.98 8 15.96 8 18 8 C18 11.3 18 14.6 18 18 C16.02 18 14.04 18 12 18 C12.33 21.96 12.66 25.92 13 30 C14.65 30.33 16.3 30.66 18 31 C18 34.3 18 37.6 18 41 C7.10055447 41.62580548 7.10055447 41.62580548 2.8125 39.1875 C-0.59319683 35.07717624 -0.12004514 30.88089895 -0.0625 25.8125 C-0.05798828 25.06291016 -0.05347656 24.31332031 -0.04882812 23.54101562 C-0.03706354 21.69397617 -0.01912865 19.84697787 0 18 C-1.32 18 -2.64 18 -4 18 C-4 14.7 -4 11.4 -4 8 C-2.68 8 -1.36 8 0 8 C0 5.36 0 2.72 0 0 Z " fill="#154B8E" transform="translate(745,81)"/>
<path d="M0 0 C0.99 0 1.98 0 3 0 C2.55389315 4.90717532 1.58277923 6.7157857 -2 10 C-4.53801913 13.21137115 -6.69911855 16.09735566 -8 20 C-8.66 20 -9.32 20 -10 20 C-10.103125 20.70125 -10.20625 21.4025 -10.3125 22.125 C-11 25 -11 25 -12.5 27.5625 C-14.9543439 33.1870381 -15.71905026 39.57813671 -14.44921875 45.62109375 C-12.33984474 49.08365109 -9.75995241 50.73402276 -6 52 C-2.33334517 52.44854635 1.25087196 52.38103531 4.9375 52.25 C5.90751953 52.23195312 6.87753906 52.21390625 7.87695312 52.1953125 C10.25234894 52.14850667 12.62563844 52.08296385 15 52 C15 52.66 15 53.32 15 54 C-11.15458884 61.01278183 -11.15458884 61.01278183 -22 56 C-25.42887569 53.27089486 -26.64232343 51.82976693 -27.47265625 47.58203125 C-28.2091588 34.49494745 -20.84501958 24.72156911 -13 15 C-12.24460937 14.01773438 -11.48921875 13.03546875 -10.7109375 12.0234375 C-6.68552507 6.826996 -6.68552507 6.826996 -5 5 C-4.34 5 -3.68 5 -3 5 C-2.690625 4.360625 -2.38125 3.72125 -2.0625 3.0625 C-1 1 -1 1 0 0 Z " fill="#488BC7" transform="translate(94,164)"/>
<path d="M0 0 C4.50630229 2.1697011 8.69056389 4.73697928 12.8125 7.5625 C13.41707031 7.97628906 14.02164062 8.39007813 14.64453125 8.81640625 C15.09183594 9.20699219 15.53914063 9.59757813 16 10 C16 10.66 16 11.32 16 12 C16.57234375 12.2475 17.1446875 12.495 17.734375 12.75 C20.35010611 14.19316199 22.14773456 15.88216222 24.25 18 C24.95640625 18.70125 25.6628125 19.4025 26.390625 20.125 C28 22 28 22 28 24 C28.66 24 29.32 24 30 24 C33.97087335 29.74358467 35.83874114 34.49892629 35.484375 41.546875 C34.73641771 45.33491676 33.1191605 46.83014922 30 49 C25.5065173 51.58163912 21.41441921 52.65372107 16.3125 53.1875 C15.26618408 53.30702026 15.26618408 53.30702026 14.19873047 53.42895508 C-0.90935533 55.04532234 -0.90935533 55.04532234 -5 53 C-5 52.34 -5 51.68 -5 51 C-4.09378906 50.97421875 -3.18757813 50.9484375 -2.25390625 50.921875 C6.74238139 50.50300023 12.94253041 49.08382292 20.5625 44.4375 C23.10182414 40.13168949 22.81955909 35.83346265 22 31 C18.57901041 22.06664662 9.94159124 12.29439416 2 7 C2 6.34 2 5.68 2 5 C1.34 5 0.68 5 0 5 C0 3.35 0 1.7 0 0 Z " fill="#14498C" transform="translate(271,153)"/>
<path d="M0 0 C4.52434147 3.40629992 8.56064089 7.35379768 10.37109375 12.78515625 C10.917946 18.91707327 11.39017719 24.95700209 7.765625 30.1953125 C1.36179185 37.49604105 -4.94146099 41.4573181 -14.62890625 42.78515625 C-25.60676472 43.47909342 -33.58462045 42.85342554 -42.87890625 36.59765625 C-48.04637804 31.31274192 -50.92363915 26.48766303 -51.00390625 18.97265625 C-50.88362384 15.76666734 -50.50651195 12.87116319 -49.62890625 9.78515625 C-50.57765625 9.49640625 -51.52640625 9.20765625 -52.50390625 8.91015625 C-55.62890625 7.78515625 -55.62890625 7.78515625 -57.62890625 5.78515625 C-56.63890625 4.79515625 -55.64890625 3.80515625 -54.62890625 2.78515625 C-54.62890625 3.77515625 -54.62890625 4.76515625 -54.62890625 5.78515625 C-52.31890625 6.44515625 -50.00890625 7.10515625 -47.62890625 7.78515625 C-47.23960938 7.26566406 -46.8503125 6.74617187 -46.44921875 6.2109375 C-34.61818147 -8.53696842 -15.48990663 -9.83524493 0 0 Z M-41.62890625 5.84765625 C-44.28103947 8.84862869 -44.28103947 8.84862869 -44.62890625 12.78515625 C-45.28890625 13.44515625 -45.94890625 14.10515625 -46.62890625 14.78515625 C-47.45567615 20.75507917 -46.88997273 25.621801 -43.62890625 30.78515625 C-42.96890625 30.78515625 -42.30890625 30.78515625 -41.62890625 30.78515625 C-41.29890625 31.77515625 -40.96890625 32.76515625 -40.62890625 33.78515625 C-33.82109054 39.38084868 -26.22353037 41.28860953 -17.53515625 41.09765625 C-9.54122896 40.23809418 -1.79646877 37.11248422 3.37109375 30.78515625 C6.6266155 25.64188404 6.84770405 20.39961078 6.05859375 14.46484375 C4.62501071 8.87712804 1.7424702 5.28267114 -3.109375 2.21875 C-16.09356448 -4.51308236 -31.21649068 -5.37048195 -41.62890625 5.84765625 Z " fill="#1E5091" transform="translate(147.62890625,136.21484375)"/>
<path d="M0 0 C7.43390587 4.6723669 12.12616803 11.66351789 15.6875 19.5 C15.99494141 20.15097656 16.30238281 20.80195312 16.61914062 21.47265625 C18.22598879 24.9535746 19.4517268 28.19863915 20 32 C16.60711611 29.73807741 16.03293566 28.35847824 14.3125 24.75 C11.46224977 19.39434462 8.5868932 15.5939147 3 13 C-1.29581386 11.97449556 -4.33590112 12.64240829 -8.25 14.75 C-9.1575 15.4925 -10.065 16.235 -11 17 C-11.680625 17.556875 -12.36125 18.11375 -13.0625 18.6875 C-18.40899116 25.0687959 -21.05355726 32.53669096 -23.59375 40.375 C-25 43 -25 43 -27.65625 43.875 C-28.4296875 43.91625 -29.203125 43.9575 -30 44 C-29.34687703 39.53699302 -28.30450763 35.30719086 -27 31 C-26.70996094 29.99195312 -26.41992188 28.98390625 -26.12109375 27.9453125 C-23.21301524 18.06924981 -19.78762764 7.98379047 -11.75 1.0625 C-7.69848968 -0.50285626 -4.26587841 -1.00248143 0 0 Z " fill="#14498C" transform="translate(177,14)"/>
<path d="M0 0 C0 4.29 0 8.58 0 13 C1.98 12.34 3.96 11.68 6 11 C7.32 11 8.64 11 10 11 C9.34 13.97 8.68 16.94 8 20 C8.39832031 19.44570312 8.79664063 18.89140625 9.20703125 18.3203125 C10.00173828 17.23363281 10.00173828 17.23363281 10.8125 16.125 C11.33457031 15.40570313 11.85664063 14.68640625 12.39453125 13.9453125 C14 12 14 12 17 10 C18.32 10 19.64 10 21 10 C20.35550393 13.01217112 19.34977818 15.51655836 17.9375 18.25 C17.57527344 18.95640625 17.21304688 19.6628125 16.83984375 20.390625 C16.56269531 20.92171875 16.28554687 21.4528125 16 22 C16.81404297 21.27683594 16.81404297 21.27683594 17.64453125 20.5390625 C18.35996094 19.90742188 19.07539063 19.27578125 19.8125 18.625 C20.52019531 17.99851563 21.22789062 17.37203125 21.95703125 16.7265625 C25.15228204 14.02617847 27.02331937 12.73846949 31.1875 12.875 C33.0746875 12.936875 33.0746875 12.936875 35 13 C34.67 13.99 34.34 14.98 34 16 C33.34 16 32.68 16 32 16 C32 16.66 32 17.32 32 18 C30.5 19.625 30.5 19.625 29 21 C30.65 21.33 32.3 21.66 34 22 C34 22.33 34 22.66 34 23 C16.37894331 26.18315863 2.54553936 25.67751233 -13 16 C-15.98199709 12.70211338 -15.98199709 12.70211338 -16.0625 9.5625 C-14.28303033 5.27083786 -10.76363048 3.1223103 -6.9375 0.6875 C-5 0 -5 0 0 0 Z " fill="#A6C065" transform="translate(163,192)"/>
<path d="M0 0 C3.96 0 7.92 0 12 0 C12.33 0.99 12.66 1.98 13 3 C13.804375 2.2575 13.804375 2.2575 14.625 1.5 C17 0 17 0 23 0 C23 4.29 23 8.58 23 13 C19.7 13.33 16.4 13.66 13 14 C12.67 20.27 12.34 26.54 12 33 C8.04 33 4.08 33 0 33 C0 22.11 0 11.22 0 0 Z " fill="#154B8E" transform="translate(786,158)"/>
<path d="M0 0 C3.96 0 7.92 0 12 0 C12.33 0.99 12.66 1.98 13 3 C13.804375 2.2575 13.804375 2.2575 14.625 1.5 C17 0 17 0 23 0 C23 4.29 23 8.58 23 13 C19.7 13.33 16.4 13.66 13 14 C12.67 20.27 12.34 26.54 12 33 C8.04 33 4.08 33 0 33 C0 22.11 0 11.22 0 0 Z " fill="#154B8E" transform="translate(429,158)"/>
<path d="M0 0 C3.96 0 7.92 0 12 0 C12.33 0.99 12.66 1.98 13 3 C13.804375 2.2575 13.804375 2.2575 14.625 1.5 C17 0 17 0 23 0 C23 4.29 23 8.58 23 13 C19.7 13.33 16.4 13.66 13 14 C12.67 20.27 12.34 26.54 12 33 C8.04 33 4.08 33 0 33 C0 22.11 0 11.22 0 0 Z " fill="#154B8E" transform="translate(637,89)"/>
<path d="M0 0 C5.79153224 8.68729836 5.18109349 17.75755126 5.1875 27.9375 C5.19974609 28.95779297 5.21199219 29.97808594 5.22460938 31.02929688 C5.24306146 40.6674385 3.53943663 49.31983162 0.3125 58.375 C0.05412354 59.10251465 -0.20425293 59.8300293 -0.47045898 60.57958984 C-2.90939463 67.18573763 -6.12640824 73.11720878 -10 79 C-10.48984375 79.75539063 -10.9796875 80.51078125 -11.484375 81.2890625 C-12.58314706 82.91136713 -13.7802394 84.46658667 -15 86 C-15.66 86 -16.32 86 -17 86 C-17.21011719 86.54398437 -17.42023438 87.08796875 -17.63671875 87.6484375 C-19.5038557 90.86911499 -22.08013447 93.15364642 -24.8125 95.625 C-25.33392578 96.11484375 -25.85535156 96.6046875 -26.39257812 97.109375 C-29.41567712 99.87205723 -32.08173748 101.768753 -36 103 C-35.360625 102.360625 -34.72125 101.72125 -34.0625 101.0625 C-33.37994141 100.37414062 -33.37994141 100.37414062 -32.68359375 99.671875 C-31.4408409 98.43777241 -30.18022524 97.22159705 -28.91015625 96.015625 C-17.29507536 84.81749573 -7.93826455 69.81228023 -4 54 C-3.79761719 53.27039063 -3.59523438 52.54078125 -3.38671875 51.7890625 C-0.46203869 39.17513624 -0.28203415 23.63309905 -4.44140625 11.33984375 C-5.11400862 8.5224394 -4.84760304 6.75470988 -4 4 C-1.9375 1.6875 -1.9375 1.6875 0 0 Z " fill="#77AC5A" transform="translate(267,113)"/>
<path d="M0 0 C0 0.99 0 1.98 0 3 C-1.35544922 3.36351563 -1.35544922 3.36351563 -2.73828125 3.734375 C-3.91777344 4.06953125 -5.09726563 4.4046875 -6.3125 4.75 C-7.48425781 5.07484375 -8.65601563 5.3996875 -9.86328125 5.734375 C-13.30453674 7.12287659 -14.42521813 7.6754605 -16 11 C-16.36989022 13.81229514 -16.60038059 16.43230942 -16.6875 19.25 C-16.72166016 19.99507812 -16.75582031 20.74015625 -16.79101562 21.5078125 C-16.87314054 23.33802492 -16.93825653 25.16898669 -17 27 C-12.38 27 -7.76 27 -3 27 C-3.66 27.99 -4.32 28.98 -5 30 C-8.96 30 -12.92 30 -17 30 C-17 44.85 -17 59.7 -17 75 C-18.65 75 -20.3 75 -22 75 C-22.04639056 67.00257242 -22.08190327 59.00520129 -22.10362434 51.00767231 C-22.11405065 47.2938848 -22.12818869 43.58018952 -22.15087891 39.86645508 C-22.17264856 36.28085107 -22.1845773 32.69533565 -22.18975449 29.10967064 C-22.19344285 27.74336541 -22.20064534 26.3770649 -22.21146011 25.0107975 C-22.22602896 23.09359105 -22.22681738 21.176295 -22.22705078 19.2590332 C-22.231492 18.16871292 -22.23593323 17.07839264 -22.24050903 15.95503235 C-21.92548535 12.08447014 -21.05748032 9.18000953 -18.44921875 6.26953125 C-12.21133986 1.11048729 -8.07770873 -0.27382063 0 0 Z " fill="#12488C" transform="translate(250,104)"/>
<path d="M0 0 C3.96 0 7.92 0 12 0 C12 10.89 12 21.78 12 33 C8.04 33 4.08 33 0 33 C0 22.11 0 11.22 0 0 Z " fill="#154B8E" transform="translate(876,158)"/>
<path d="M0 0 C0.86033092 8.60330923 0.86033092 8.60330923 -2.1875 12.375 C-7.64415953 17.46788223 -11.71187315 18.53953011 -19 19 C-19.12375 19.94875 -19.2475 20.8975 -19.375 21.875 C-20 25 -20 25 -22 27 C-21.77028802 24.45503311 -21.51701591 21.9161014 -21.25 19.375 C-21.188125 18.66214844 -21.12625 17.94929688 -21.0625 17.21484375 C-20.41959425 11.37511656 -18.68835092 7.17235266 -13.96484375 3.35546875 C-12.96130859 2.77732422 -12.96130859 2.77732422 -11.9375 2.1875 C-11.26589844 1.78917969 -10.59429687 1.39085938 -9.90234375 0.98046875 C-6.14540964 -0.95585663 -4.028828 -0.97998519 0 0 Z " fill="#8DC643" transform="translate(187,107)"/>
<path d="M0 0 C0 4.29 0 8.58 0 13 C1.32 13.33 2.64 13.66 4 14 C3.01 16.31 2.02 18.62 1 21 C-5.49722234 20.72352245 -10.16884118 18.3725045 -15 14 C-16.5 11 -16.5 11 -16 8 C-11.53174034 2.71360829 -6.90347113 0 0 0 Z " fill="#FAFBF7" transform="translate(163,192)"/>
<path d="M0 0 C0.33 0 0.66 0 1 0 C1 10.56 1 21.12 1 32 C1.99 31.67 2.98 31.34 4 31 C4 41.56 4 52.12 4 63 C2.35 63 0.7 63 -1 63 C-1.02312737 54.93347826 -1.04091709 46.86697028 -1.05181217 38.80042362 C-1.05704014 35.05516963 -1.06413622 31.30993824 -1.07543945 27.56469727 C-1.08627141 23.95318313 -1.09227749 20.34169079 -1.09487724 16.73016167 C-1.09673094 15.34939671 -1.10035049 13.968633 -1.10573006 12.58787727 C-1.11294447 10.66024048 -1.11340809 8.73258193 -1.11352539 6.80493164 C-1.115746 5.70572891 -1.11796661 4.60652618 -1.12025452 3.47401428 C-1 1 -1 1 0 0 Z " fill="#2D5D9A" transform="translate(229,116)"/>
<path d="M0 0 C5.56225539 1.34842555 8.73442841 5.56689879 12 10 C13.78065949 15.34197846 14.0002261 21.71009969 12.3515625 27.1328125 C9.93273855 31.7430496 6.05763087 34.88838981 2 38 C1.505 36.515 1.505 36.515 1 35 C2.22135632 33.51456664 3.44798938 32.03276283 4.71484375 30.5859375 C7.9463698 26.59809685 8.1774901 22.57424312 8 17.625 C7.36055447 11.84630706 5.09654552 8.06394702 1 4 C0.34 3.67 -0.32 3.34 -1 3 C-0.67 2.01 -0.34 1.02 0 0 Z " fill="#164B8E" transform="translate(145,136)"/>
<path d="M0 0 C2.375 1.125 2.375 1.125 4 3 C4.51020728 7.08165827 4.31361802 8.52957297 2 12 C-1.47145233 12.83572001 -3.95649876 13.35698727 -7.375 12.1875 C-9 11 -9 11 -10 9 C-10.3125 6.0625 -10.3125 6.0625 -10 3 C-7.08783566 -0.36018962 -4.28391942 -0.53548993 0 0 Z " fill="#154B8E" transform="translate(885,143)"/>
<path d="M0 0 C3.63 0 7.26 0 11 0 C9.53515625 1.69270833 8.0703125 3.38541667 6.60546875 5.078125 C5.81076172 6.02945313 5.81076172 6.02945313 5 7 C4.48244141 7.54269531 3.96488281 8.08539063 3.43164062 8.64453125 C1.45966008 11.88901766 1.52191151 14.91900352 1.48828125 18.609375 C1.47033005 19.33618469 1.45237885 20.06299438 1.43388367 20.81182861 C1.37986759 23.12449407 1.3459144 25.43695421 1.3125 27.75 C1.27931907 29.3216431 1.24482868 30.89325914 1.20898438 32.46484375 C1.12414672 36.30974746 1.05729494 40.15459122 1 44 C0.67 44 0.34 44 0 44 C0 29.48 0 14.96 0 0 Z " fill="#E2EAF3" transform="translate(233,134)"/>
<path d="M0 0 C-0.65784963 3.29680965 -1.89420573 5.84117922 -3.5625 8.75 C-4.01753906 9.54921875 -4.47257813 10.3484375 -4.94140625 11.171875 C-5.29074219 11.77515625 -5.64007813 12.3784375 -6 13 C-8.31 13 -10.62 13 -13 13 C-12.25646401 8.16701605 -9.51159565 4.41712092 -6 1.125 C-4 0 -4 0 0 0 Z " fill="#86AA2D" transform="translate(184,202)"/>
<path d="M0 0 C-0.33 0.99 -0.66 1.98 -1 3 C-1.66 3 -2.32 3 -3 3 C-3 3.66 -3 4.32 -3 5 C-6.87521187 9.26273305 -10.52686754 9.57106886 -15.98828125 9.921875 C-16.98408203 9.96054688 -16.98408203 9.96054688 -18 10 C-9.39473684 -0.46973684 -9.39473684 -0.46973684 0 0 Z " fill="#84A829" transform="translate(198,205)"/>
<path d="M0 0 C6.27564861 0.59768082 10.15963513 2.91093718 14.3125 7.625 C17.00587148 11.41567097 17.11184417 13.48664774 17.0625 18.125 C17.05347656 19.22070312 17.04445312 20.31640625 17.03515625 21.4453125 C17.02355469 22.28835937 17.01195312 23.13140625 17 24 C14.6864675 21.6864675 14.76012727 21.05703085 14.375 17.9375 C13.1576301 11.90908425 9.48766692 8.0267714 5 4 C3.34354857 2.98316843 1.67920319 1.97880255 0 1 C0 0.67 0 0.34 0 0 Z " fill="#3A8132" transform="translate(147,96)"/>
<path d="M0 0 C0.66 0.33 1.32 0.66 2 1 C1.38479725 4.99881788 -0.60268669 7.80358226 -3 11 C-3.66 11 -4.32 11 -5 11 C-5.21011719 11.54398438 -5.42023438 12.08796875 -5.63671875 12.6484375 C-7.5038557 15.86911499 -10.08013447 18.15364642 -12.8125 20.625 C-13.33392578 21.11484375 -13.85535156 21.6046875 -14.39257812 22.109375 C-17.41567712 24.87205723 -20.08173748 26.768753 -24 28 C-23.360625 27.360625 -22.72125 26.72125 -22.0625 26.0625 C-21.60746094 25.60359375 -21.15242187 25.1446875 -20.68359375 24.671875 C-19.4408409 23.43777241 -18.18022524 22.22159705 -16.91015625 21.015625 C-12.15214622 16.42841533 -8.17523466 11.76285199 -4.5078125 6.26171875 C-3.07551082 4.11326623 -1.56762355 2.05105237 0 0 Z " fill="#76A958" transform="translate(255,188)"/>
<path d="M0 0 C-0.99 1.485 -0.99 1.485 -2 3 C-4.37587624 2.88513575 -6.75015171 2.75841844 -9.125 2.625 C-9.79015625 2.5940625 -10.4553125 2.563125 -11.140625 2.53125 C-15.39821262 2.28080367 -19.02085783 1.52471803 -23 0 C-23 -0.33 -23 -0.66 -23 -1 C-15.14705119 -3.02656743 -7.72659569 -2.04581257 0 0 Z " fill="#285896" transform="translate(206,132)"/>
<path d="M0 0 C0.66 0.33 1.32 0.66 2 1 C0.92130607 1.96355244 -0.16318743 2.92061417 -1.25 3.875 C-1.85328125 4.40867188 -2.4565625 4.94234375 -3.078125 5.4921875 C-6.6063944 8.2603013 -9.27163199 9.2529278 -13.765625 9.1953125 C-14.65507812 9.18886719 -15.54453125 9.18242187 -16.4609375 9.17578125 C-17.38132813 9.15902344 -18.30171875 9.14226562 -19.25 9.125 C-20.18585938 9.11597656 -21.12171875 9.10695312 -22.0859375 9.09765625 C-24.39088657 9.07413636 -26.6953116 9.04126853 -29 9 C-29 8.67 -29 8.34 -29 8 C-27.99582031 7.92523438 -26.99164063 7.85046875 -25.95703125 7.7734375 C-17.11638643 6.97102574 -10.39199698 5.33794381 -2.4765625 1.14453125 C-1.65929687 0.76683594 -0.84203125 0.38914063 0 0 Z " fill="#14458A" transform="translate(216,169)"/>
<path d="M0 0 C0 0.99 0 1.98 0 3 C-2.10251861 3.67184618 -4.20707763 4.33730968 -6.3125 5 C-8.07013672 5.556875 -8.07013672 5.556875 -9.86328125 6.125 C-13 7 -13 7 -16 7 C-16 6.01 -16 5.02 -16 4 C-10.4174808 0.67424388 -6.50313209 -0.46450943 0 0 Z " fill="#315D99" transform="translate(250,104)"/>
<path d="M0 0 C1.32 0 2.64 0 4 0 C3.01 3.63 2.02 7.26 1 11 C-1.97 10.505 -1.97 10.505 -5 10 C-4.49967382 5.62214594 -3.11840922 3.11840922 0 0 Z " fill="#86AA2D" transform="translate(169,203)"/>
<path d="M0 0 C4 1 4 1 6 2 C5.91284983 3.93833996 5.80467036 5.8757429 5.6875 7.8125 C5.62949219 8.89144531 5.57148437 9.97039062 5.51171875 11.08203125 C5 14 5 14 2 17 C1.34 11.39 0.68 5.78 0 0 Z " fill="#E7EFE8" transform="translate(92,144)"/>
<path d="M0 0 C1.32 0 2.64 0 4 0 C4 4.29 4 8.58 4 13 C2.68 13 1.36 13 0 13 C0 8.71 0 4.42 0 0 Z " fill="#255697" transform="translate(163,192)"/>
<path d="M0 0 C0 3.32058331 -0.43061972 5.08543662 -2 8 C-3.65697379 8.69040574 -5.3255761 9.3530635 -7 10 C-9.15628316 11.88230836 -11.04091225 13.90423171 -13 16 C-13.66 15.67 -14.32 15.34 -15 15 C-12.03 12.03 -9.06 9.06 -6 6 C-10.29 5.67 -14.58 5.34 -19 5 C-19 4.67 -19 4.34 -19 4 C-17.87980469 3.96261719 -16.75960937 3.92523438 -15.60546875 3.88671875 C-14.1327791 3.82105743 -12.66012434 3.75461014 -11.1875 3.6875 C-10.44951172 3.66494141 -9.71152344 3.64238281 -8.95117188 3.61914062 C-4.66892961 3.44442045 -4.66892961 3.44442045 -0.98828125 1.45703125 C-0.66214844 0.97621094 -0.33601563 0.49539062 0 0 Z " fill="#6092C4" transform="translate(252,126)"/>
<path d="M0 0 C0.33 0 0.66 0 1 0 C0.49920885 10.76700962 -0.40127988 21.33669204 -2 32 C-2.33 32 -2.66 32 -3 32 C-4.22767367 24.38737844 -3.6130141 17.89173177 -2.0625 10.375 C-1.86720703 9.37082031 -1.67191406 8.36664063 -1.47070312 7.33203125 C-0.992997 4.88524378 -0.50264081 2.44176432 0 0 Z " fill="#4670A5" transform="translate(210,190)"/>
<path d="M0 0 C3.28482819 2.18988546 3.77237513 3.62138463 5.171875 7.1796875 C6.36603128 9.8045782 8.10737905 11.84632789 10 14 C9.34 15.65 8.68 17.3 8 19 C5.41589795 15.85512507 3.86214318 12.69294159 2.3125 8.9375 C1.87550781 7.89464844 1.43851563 6.85179687 0.98828125 5.77734375 C0 3 0 3 0 0 Z " fill="#104282" transform="translate(156,240)"/>
<path d="M0 0 C0 0.66 0 1.32 0 2 C-1.6029053 2.81498562 -3.20737278 3.62689927 -4.8125 4.4375 C-5.70582031 4.88996094 -6.59914063 5.34242188 -7.51953125 5.80859375 C-10 7 -10 7 -13 8 C-13 6.68 -13 5.36 -13 4 C-4.738041 -0.59225513 -4.738041 -0.59225513 0 0 Z " fill="#184B8E" transform="translate(120,132)"/>
<path d="M0 0 C0.78375 0.04125 1.5675 0.0825 2.375 0.125 C0.61306673 1.9796666 -1.1634315 3.54523922 -3.1875 5.125 C-7.19895948 8.41645394 -7.95960378 11.13452835 -8.625 16.125 C-8.955 16.125 -9.285 16.125 -9.625 16.125 C-10.41193051 8.09830879 -10.41193051 8.09830879 -7.25 4.1875 C-6.38375 3.506875 -5.5175 2.82625 -4.625 2.125 C-2.625 0.125 -2.625 0.125 0 0 Z " fill="#418732" transform="translate(177.625,108.875)"/>
<path d="M0 0 C0.66 0.66 1.32 1.32 2 2 C0.35 2 -1.3 2 -3 2 C-3 2.66 -3 3.32 -3 4 C-5.64 4 -8.28 4 -11 4 C-11 3.34 -11 2.68 -11 2 C-11.99 1.67 -12.98 1.34 -14 1 C-9.45352102 -0.1732849 -4.66972706 -0.54128467 0 0 Z " fill="#2A5A97" transform="translate(131,130)"/>
<path d="M0 0 C1.89611434 0.14213297 3.79188394 0.28886907 5.6875 0.4375 C6.74324219 0.51871094 7.79898438 0.59992188 8.88671875 0.68359375 C11.65086297 0.96451681 14.28945741 1.40156852 17 2 C17 2.66 17 3.32 17 4 C18.32 4.33 19.64 4.66 21 5 C13.54508438 4.63419196 6.95068039 3.79080349 0 1 C0 0.67 0 0.34 0 0 Z " fill="#EAF2E6" transform="translate(152,225)"/>
<path d="M0 0 C0.99 0.33 1.98 0.66 3 1 C1.11204204 2.80063614 -0.78456911 4.59030514 -2.6875 6.375 C-3.48317383 7.13683594 -3.48317383 7.13683594 -4.29492188 7.9140625 C-7.35912035 10.77147457 -9.9106645 12.74057571 -14 14 C-9.33333333 9.33333333 -4.66666667 4.66666667 0 0 Z " fill="#6CA050" transform="translate(245,202)"/>
<path d="M0 0 C0 0.99 0 1.98 0 3 C-4.88077452 5.44038726 -7.52667068 6.46845421 -13 5 C-3.38461538 0 -3.38461538 0 0 0 Z " fill="#305A97" transform="translate(146,172)"/>
<path d="M0 0 C0.66 0.33 1.32 0.66 2 1 C2 4.96 2 8.92 2 13 C-0.47532211 10.52467789 -0.38704795 9.36068317 -0.6875 5.9375 C-0.77386719 5.03902344 -0.86023438 4.14054687 -0.94921875 3.21484375 C-0.96597656 2.48394531 -0.98273438 1.75304687 -1 1 C-0.67 0.67 -0.34 0.34 0 0 Z " fill="#43873B" transform="translate(162,107)"/>
<path d="M0 0 C3.21043882 1.38188453 5.04936365 2.92421903 7.25 5.625 C8.03117188 6.57246094 8.03117188 6.57246094 8.828125 7.5390625 C9.40820312 8.26222656 9.40820312 8.26222656 10 9 C9.01 9.99 8.02 10.98 7 12 C6.74605469 11.46890625 6.49210938 10.9378125 6.23046875 10.390625 C4.41650476 6.6675828 2.6686482 3.20237785 0 0 Z " fill="#EBF3E6" transform="translate(151,100)"/>
<path d="M0 0 C2.42945561 3.64418341 2.0828781 4.92923364 1.625 9.1875 C1.51414063 10.27417969 1.40328125 11.36085937 1.2890625 12.48046875 C1.19367188 13.31191406 1.09828125 14.14335937 1 15 C0.67 15 0.34 15 0 15 C-1.33257403 4.44191344 -1.33257403 4.44191344 0 0 Z " fill="#587FAE" transform="translate(207,207)"/>
<path d="M0 0 C2.75 0.8125 2.75 0.8125 5 2 C2.68143083 3.54571278 0.49361571 4.79618552 -2 6 C-2.66 5.01 -3.32 4.02 -4 3 C-2.3125 1.375 -2.3125 1.375 0 0 Z " fill="#245594" transform="translate(237,106)"/>
<path d="M0 0 C0.33 0.99 0.66 1.98 1 3 C2.64551962 3.71727778 4.31422289 4.38325228 6 5 C6.66 5.66 7.32 6.32 8 7 C7.34 7.66 6.68 8.32 6 9 C6 8.34 6 7.68 6 7 C5.05125 6.71125 4.1025 6.4225 3.125 6.125 C0 5 0 5 -2 3 C-1.34 2.01 -0.68 1.02 0 0 Z " fill="#2D5894" transform="translate(92,139)"/>
<path d="M0 0 C1.98 0.66 3.96 1.32 6 2 C5.01 3.485 5.01 3.485 4 5 C1.69 4.34 -0.62 3.68 -3 3 C-2.01 2.01 -1.02 1.02 0 0 Z " fill="#255795" transform="translate(140,133)"/>
<path d="M0 0 C0 0.99 0 1.98 0 3 C-2.8125 3.625 -2.8125 3.625 -6 4 C-6.99 3.34 -7.98 2.68 -9 2 C-5.62902617 0.50178941 -3.79557881 0 0 0 Z " fill="#7EB846" transform="translate(186,106)"/>
<path d="M0 0 C1.83836919 3.67673838 2.93651813 7.04992447 4 11 C2.68 10.34 1.36 9.68 0 9 C0 6.03 0 3.06 0 0 Z " fill="#F3F6F5" transform="translate(95,154)"/>
<path d="M0 0 C0.99 0 1.98 0 3 0 C1.6302836 3.99500618 -0.25722422 6.80009492 -3 10 C-2.49287967 6.28111761 -1.88391785 3.26545761 0 0 Z " fill="#7EB162" transform="translate(103,97)"/>
<path d="M0 0 C0.99 1.32 1.98 2.64 3 4 C1.75 5.5625 1.75 5.5625 0 7 C-2.1875 6.6875 -2.1875 6.6875 -4 6 C-3.525625 5.566875 -3.05125 5.13375 -2.5625 4.6875 C-0.76313043 2.97690387 -0.76313043 2.97690387 0 0 Z " fill="#2D5D99" transform="translate(218,163)"/>
<path d="M0 0 C0.99 0 1.98 0 3 0 C2.67 1.65 2.34 3.3 2 5 C1.01 4.67 0.02 4.34 -1 4 C-0.67 2.68 -0.34 1.36 0 0 Z " fill="#5290CA" transform="translate(94,164)"/>
<path d="M0 0 C2.50298434 2.93828597 3.46930939 5.17902761 4 9 C0.39345961 6.59563974 0.14547068 5.05320393 -1 1 C-0.67 0.67 -0.34 0.34 0 0 Z " fill="#0D3F79" transform="translate(193,37)"/>
</svg>
